  0
SECTION
  2
HEADER
  9
$ACADVER
  1
AC1015
  9
$ACADMAINTVER
 70
     6
  9
$DWGCODEPAGE
  3
ANSI_936
  9
$INSBASE
 10
0.0
 20
0.0
 30
0.0
  9
$EXTMIN
 10
0.0
 20
0.0
 30
0.0
  9
$EXTMAX
 10
210.0
 20
297.0
 30
0.0
  9
$LIMMIN
 10
0.0
 20
0.0
  9
$LIMMAX
 10
210.0
 20
297.0
  9
$ORTHOMODE
 70
     0
  9
$REGENMODE
 70
     1
  9
$FILLMODE
 70
     1
  9
$QTEXTMODE
 70
     0
  9
$MIRRTEXT
 70
     1
  9
$LTSCALE
 40
1.0
  9
$ATTMODE
 70
     1
  9
$TEXTSIZE
 40
3.5
  9
$TRACEWID
 40
1.0
  9
$TEXTSTYLE
  7
STANDARD
  9
$CLAYER
  8
0
  9
$CELTYPE
  6
ByLayer
  9
$CECOLOR
 62
   256
  9
$CELTSCALE
 40
1.0
  9
$DISPSILH
 70
     0
  9
$DIMSCALE
 40
1.0
  9
$DIMASZ
 40
4.08
  9
$DIMEXO
 40
0.0
  9
$DIMDLI
 40
3.75
  9
$DIMRND
 40
0.0
  9
$DIMDLE
 40
0.0
  9
$DIMEXE
 40
2.0
  9
$DIMTP
 40
0.0
  9
$DIMTM
 40
0.0
  9
$DIMTXT
 40
3.5
  9
$DIMCEN
 40
2.5
  9
$DIMTSZ
 40
0.0
  9
$DIMTOL
 70
     0
  9
$DIMLIM
 70
     0
  9
$DIMTIH
 70
     1
  9
$DIMTOH
 70
     1
  9
$DIMSE1
 70
     0
  9
$DIMSE2
 70
     0
  9
$DIMTAD
 70
     1
  9
$DIMZIN
 70
     1
  9
$DIMBLK
  1

  9
$DIMASO
 70
     1
  9
$DIMSHO
 70
     1
  9
$DIMPOST
  1

  9
$DIMAPOST
  1

  9
$DIMALT
 70
     0
  9
$DIMALTD
 70
     3
  9
$DIMALTF
 40
0.0393700787
  9
$DIMLFAC
 40
1.0
  9
$DIMTOFL
 70
     1
  9
$DIMTVP
 40
0.0
  9
$DIMTIX
 70
     0
  9
$DIMSOXD
 70
     0
  9
$DIMSAH
 70
     0
  9
$DIMBLK1
  1

  9
$DIMBLK2
  1

  9
$DIMSTYLE
  2
ISO-25
  9
$DIMCLRD
 70
     0
  9
$DIMCLRE
 70
     0
  9
$DIMCLRT
 70
     0
  9
$DIMTFAC
 40
1.0
  9
$DIMGAP
 40
1.524
  9
$DIMJUST
 70
     0
  9
$DIMSD1
 70
     0
  9
$DIMSD2
 70
     0
  9
$DIMTOLJ
 70
     0
  9
$DIMTZIN
 70
     1
  9
$DIMALTZ
 70
     0
  9
$DIMALTTZ
 70
     0
  9
$DIMUPT
 70
     0
  9
$DIMDEC
 70
     2
  9
$DIMTDEC
 70
     2
  9
$DIMALTU
 70
     2
  9
$DIMALTTD
 70
     3
  9
$DIMTXSTY
  7
STANDARD
  9
$DIMAUNIT
 70
     0
  9
$DIMADEC
 70
     2
  9
$DIMALTRND
 40
0.0
  9
$DIMAZIN
 70
     0
  9
$DIMDSEP
 70
    44
  9
$DIMATFIT
 70
     3
  9
$DIMFRAC
 70
     0
  9
$DIMLDRBLK
  1

  9
$DIMLUNIT
 70
     2
  9
$DIMLWD
 70
    -2
  9
$DIMLWE
 70
    -2
  9
$DIMTMOVE
 70
     0
  9
$LUNITS
 70
     2
  9
$LUPREC
 70
     2
  9
$SKETCHINC
 40
1.0
  9
$FILLETRAD
 40
0.0
  9
$AUNITS
 70
     0
  9
$AUPREC
 70
     2
  9
$MENU
  1
.
  9
$ELEVATION
 40
0.0
  9
$PELEVATION
 40
0.0
  9
$THICKNESS
 40
0.0
  9
$LIMCHECK
 70
     0
  9
$CHAMFERA
 40
0.0
  9
$CHAMFERB
 40
0.0
  9
$CHAMFERC
 40
0.0
  9
$CHAMFERD
 40
0.0
  9
$SKPOLY
 70
     0
  9
$TDCREATE
 40
2460567.442527489
  9
$TDUCREATE
 40
2460567.109194156
  9
$TDUPDATE
 40
2460567.442530973
  9
$TDUUPDATE
 40
2460567.109197639
  9
$TDINDWG
 40
0.0000000116
  9
$TDUSRTIMER
 40
0.0000000116
  9
$USRTIMER
 70
     1
  9
$ANGBASE
 50
0.0
  9
$ANGDIR
 70
     0
  9
$PDMODE
 70
     0
  9
$PDSIZE
 40
-1.0
  9
$PLINEWID
 40
0.0
  9
$SPLFRAME
 70
     0
  9
$SPLINETYPE
 70
     6
  9
$SPLINESEGS
 70
     8
  9
$HANDSEED
  5
17C
  9
$SURFTAB1
 70
     6
  9
$SURFTAB2
 70
     6
  9
$SURFTYPE
 70
     6
  9
$SURFU
 70
     6
  9
$SURFV
 70
     6
  9
$UCSBASE
  2

  9
$UCSNAME
  2

  9
$UCSORG
 10
0.0
 20
0.0
 30
0.0
  9
$UCSXDIR
 10
1.0
 20
0.0
 30
0.0
  9
$UCSYDIR
 10
0.0
 20
1.0
 30
0.0
  9
$UCSORTHOREF
  2

  9
$UCSORTHOVIEW
 70
     0
  9
$UCSORGTOP
 10
0.0
 20
0.0
 30
0.0
  9
$UCSORGBOTTOM
 10
0.0
 20
0.0
 30
0.0
  9
$UCSORGLEFT
 10
0.0
 20
0.0
 30
0.0
  9
$UCSORGRIGHT
 10
0.0
 20
0.0
 30
0.0
  9
$UCSORGFRONT
 10
0.0
 20
0.0
 30
0.0
  9
$UCSORGBACK
 10
0.0
 20
0.0
 30
0.0
  9
$PUCSBASE
  2

  9
$PUCSNAME
  2

  9
$PUCSORG
 10
0.0
 20
0.0
 30
0.0
  9
$PUCSXDIR
 10
1.0
 20
0.0
 30
0.0
  9
$PUCSYDIR
 10
0.0
 20
1.0
 30
0.0
  9
$PUCSORTHOREF
  2

  9
$PUCSORTHOVIEW
 70
     0
  9
$PUCSORGTOP
 10
0.0
 20
0.0
 30
0.0
  9
$PUCSORGBOTTOM
 10
0.0
 20
0.0
 30
0.0
  9
$PUCSORGLEFT
 10
0.0
 20
0.0
 30
0.0
  9
$PUCSORGRIGHT
 10
0.0
 20
0.0
 30
0.0
  9
$PUCSORGFRONT
 10
0.0
 20
0.0
 30
0.0
  9
$PUCSORGBACK
 10
0.0
 20
0.0
 30
0.0
  9
$USERI1
 70
     0
  9
$USERI2
 70
     0
  9
$USERI3
 70
     0
  9
$USERI4
 70
     0
  9
$USERI5
 70
     0
  9
$USERR1
 40
0.0
  9
$USERR2
 40
0.0
  9
$USERR3
 40
0.0
  9
$USERR4
 40
0.0
  9
$USERR5
 40
0.0
  9
$WORLDVIEW
 70
     1
  9
$SHADEDGE
 70
     3
  9
$SHADEDIF
 70
    70
  9
$TILEMODE
 70
     1
  9
$MAXACTVP
 70
    64
  9
$PINSBASE
 10
0.0
 20
0.0
 30
0.0
  9
$PLIMCHECK
 70
     0
  9
$PEXTMIN
 10
1.0000000000E+20
 20
1.0000000000E+20
 30
1.0000000000E+20
  9
$PEXTMAX
 10
-1.0000000000E+20
 20
-1.0000000000E+20
 30
-1.0000000000E+20
  9
$PLIMMIN
 10
0.0
 20
0.0
  9
$PLIMMAX
 10
420.0
 20
297.0
  9
$UNITMODE
 70
     0
  9
$VISRETAIN
 70
     1
  9
$PLINEGEN
 70
     0
  9
$PSLTSCALE
 70
     1
  9
$TREEDEPTH
 70
  3020
  9
$CMLSTYLE
  2
Standard
  9
$CMLJUST
 70
     0
  9
$CMLSCALE
 40
20.0
  9
$PROXYGRAPHICS
 70
     1
  9
$MEASUREMENT
 70
     1
  9
$CELWEIGHT
370
    -1
  9
$ENDCAPS
280
     0
  9
$JOINSTYLE
280
     0
  9
$LWDISPLAY
290
     1
  9
$INSUNITS
 70
     4
  9
$HYPERLINKBASE
  1

  9
$STYLESHEET
  1

  9
$XEDIT
290
     1
  9
$CEPSNTYPE
380
     0
  9
$PSTYLEMODE
290
     1
  9
$FINGERPRINTGUID
  2
{28d74adc-531b-4a27-b2e9-0934a3561772}
  9
$VERSIONGUID
  2
{FAEB1C32-E019-11D5-929B-00C0DF256EC4}
  9
$EXTNAMES
290
     1
  9
$PSVPSCALE
 40
0.0
  9
$OLESTARTUP
290
     0
  0
ENDSEC
  0
SECTION
  2
CLASSES
  0
CLASS
  1
ACDBDICTIONARYWDFLT
  2
AcDbDictionaryWithDefault
  3
ObjectDBX Classes
 90
        0
280
     0
281
     0
  0
CLASS
  1
VISUALSTYLE
  2
AcDbVisualStyle
  3
ObjectDBX Classes
 90
     4095
280
     0
281
     0
  0
CLASS
  1
MATERIAL
  2
AcDbMaterial
  3
ObjectDBX Classes
 90
     1153
280
     0
281
     0
  0
CLASS
  1
SCALE
  2
AcDbScale
  3
ObjectDBX Classes
 90
     1153
280
     0
281
     0
  0
CLASS
  1
TABLESTYLE
  2
AcDbTableStyle
  3
ObjectDBX Classes
 90
     4095
280
     0
281
     0
  0
CLASS
  1
MLEADERSTYLE
  2
AcDbMLeaderStyle
  3
ACDB_MLEADERSTYLE_CLASS
 90
     4095
280
     0
281
     0
  0
CLASS
  1
SUN
  2
AcDbSun
  3
SCENEOE
 90
     1153
280
     0
281
     0
  0
CLASS
  1
ACDBPLACEHOLDER
  2
AcDbPlaceHolder
  3
ObjectDBX Classes
 90
        0
280
     0
281
     0
  0
CLASS
  1
LAYOUT
  2
AcDbLayout
  3
ObjectDBX Classes
 90
        0
280
     0
281
     0
  0
ENDSEC
  0
SECTION
  2
TABLES
  0
TABLE
  2
VPORT
  5
8
330
0
100
AcDbSymbolTable
 70
     1
  0
VPORT
  5
29
330
8
100
AcDbSymbolTableRecord
100
AcDbViewportTableRecord
  2
*Active
 70
     0
 10
0.0
 20
0.0
 11
1.0
 21
1.0
 12
105.0
 22
148.5
 13
0.0
 23
0.0
 14
10.0
 24
10.0
 15
10.0
 25
10.0
 16
0.0
 26
0.0
 36
1.0
 17
0.0
 27
0.0
 37
0.0
 40
297.0
 41
0.7070707071
 42
50.0
 43
0.0
 44
0.0
 50
0.0
 51
0.0
 71
     0
 72
  2000
 73
     1
 74
     3
 75
     0
 76
     0
 77
     0
 78
     0
281
     0
 65
     1
110
0.0
120
0.0
130
0.0
111
1.0
121
0.0
131
0.0
112
0.0
122
1.0
132
0.0
 79
     0
146
0.0
  0
ENDTAB
  0
TABLE
  2
LTYPE
  5
5
330
0
100
AcDbSymbolTable
 70
     6
  0
LTYPE
  5
14
330
5
100
AcDbSymbolTableRecord
100
AcDbLinetypeTableRecord
  2
ByBlock
 70
     0
  3

 72
    65
 73
     0
 40
0.0
  0
LTYPE
  5
15
330
5
100
AcDbSymbolTableRecord
100
AcDbLinetypeTableRecord
  2
ByLayer
 70
     0
  3

 72
    65
 73
     0
 40
0.0
  0
LTYPE
  5
16
330
5
100
AcDbSymbolTableRecord
100
AcDbLinetypeTableRecord
  2
Continuous
 70
     0
  3
Solid line
 72
    65
 73
     0
 40
0.0
  0
LTYPE
  5
5E
330
5
100
AcDbSymbolTableRecord
100
AcDbLinetypeTableRecord
  2
HIDDEN
 70
     0
  3
Hidden __ __ __ __ __ __ __ __ __ __ __ __ __ __
 72
    65
 73
     2
 40
1.905
 49
1.27
 74
     0
 49
-0.635
 74
     0
  0
LTYPE
  5
5F
330
5
100
AcDbSymbolTableRecord
100
AcDbLinetypeTableRecord
  2
PHANTOM
 70
     0
  3
Phantom ______  __  __  ______  __  __  ______
 72
    65
 73
     6
 40
12.7
 49
6.35
 74
     0
 49
-1.27
 74
     0
 49
1.27
 74
     0
 49
-1.27
 74
     0
 49
1.27
 74
     0
 49
-1.27
 74
     0
  0
LTYPE
  5
60
330
5
100
AcDbSymbolTableRecord
100
AcDbLinetypeTableRecord
  2
CENTER
 70
     0
  3
Center ____ _ ____ _ ____ _ ____ _ ____ _ ____
 72
    65
 73
     4
 40
10.16
 49
6.35
 74
     0
 49
-1.27
 74
     0
 49
1.27
 74
     0
 49
-1.27
 74
     0
  0
LTYPE
  5
61
330
5
100
AcDbSymbolTableRecord
100
AcDbLinetypeTableRecord
  2
CENTERX2
 70
     0
  3
Center (2x) ________  __  ________  __  _____
 72
    65
 73
     4
 40
20.32
 49
12.7
 74
     0
 49
-2.54
 74
     0
 49
2.54
 74
     0
 49
-2.54
 74
     0
  0
LTYPE
  5
62
330
5
100
AcDbSymbolTableRecord
100
AcDbLinetypeTableRecord
  2
DOT2
 70
     0
  3
Dot (.5x) ........................................
 72
    65
 73
     2
 40
0.635
 49
0.0
 74
     0
 49
-0.635
 74
     0
  0
ENDTAB
  0
TABLE
  2
LAYER
  5
2
330
0
100
AcDbSymbolTable
 70
    14
  0
LAYER
  5
10
330
2
100
AcDbSymbolTableRecord
100
AcDbLayerTableRecord
  2
0
 70
     0
 62
     7
  6
Continuous
370
    -3
390
F
  0
LAYER
  5
63
330
2
100
AcDbSymbolTableRecord
100
AcDbLayerTableRecord
  2
粗实线层
 70
     0
 62
     7
  6
Continuous
370
    25
390
F
  0
LAYER
  5
64
330
2
100
AcDbSymbolTableRecord
100
AcDbLayerTableRecord
  2
细实线层
 70
     0
 62
     7
  6
Continuous
370
    -3
390
F
  0
LAYER
  5
65
330
2
100
AcDbSymbolTableRecord
100
AcDbLayerTableRecord
  2
中心线层
 70
     0
 62
     1
  6
CENTERX2
370
    -3
390
F
  0
LAYER
  5
66
330
2
100
AcDbSymbolTableRecord
100
AcDbLayerTableRecord
  2
虚线层
 70
     0
 62
     7
  6
HIDDEN
370
    -3
390
F
  0
LAYER
  5
67
330
2
100
AcDbSymbolTableRecord
100
AcDbLayerTableRecord
  2
双点划线层
 70
     0
 62
     7
  6
PHANTOM
370
    -3
390
F
  0
LAYER
  5
68
330
2
100
AcDbSymbolTableRecord
100
AcDbLayerTableRecord
  2
点划线层
 70
     0
 62
     7
  6
CENTER
370
    -3
390
F
  0
LAYER
  5
69
330
2
100
AcDbSymbolTableRecord
100
AcDbLayerTableRecord
  2
图框
 70
     0
 62
     7
  6
Continuous
370
    -3
390
F
  0
LAYER
  5
6A
330
2
100
AcDbSymbolTableRecord
100
AcDbLayerTableRecord
  2
轮廓实线层
 70
     0
 62
     7
  6
Continuous
370
    50
390
F
  0
LAYER
  5
6B
330
2
100
AcDbSymbolTableRecord
100
AcDbLayerTableRecord
  2
细线层
 70
     0
 62
     4
  6
Continuous
370
    25
390
F
  0
LAYER
  5
6C
330
2
100
AcDbSymbolTableRecord
100
AcDbLayerTableRecord
  2
剖面线层
 70
     0
 62
     2
  6
Continuous
370
    25
390
F
  0
LAYER
  5
6D
330
2
100
AcDbSymbolTableRecord
100
AcDbLayerTableRecord
  2
文字层
 70
     0
 62
     7
  6
Continuous
370
    25
390
F
  0
LAYER
  5
6E
330
2
100
AcDbSymbolTableRecord
100
AcDbLayerTableRecord
  2
标注层
 70
     0
 62
     5
  6
Continuous
370
    25
390
F
  0
LAYER
  5
6F
330
2
100
AcDbSymbolTableRecord
100
AcDbLayerTableRecord
  2
符号标注层
 70
     0
 62
    31
  6
Continuous
370
    25
390
F
  0
ENDTAB
  0
TABLE
  2
STYLE
  5
3
330
0
100
AcDbSymbolTable
 70
     5
  0
STYLE
  5
11
330
3
100
AcDbSymbolTableRecord
100
AcDbTextStyleTableRecord
  2
STANDARD
 70
     0
 40
0.0
 41
1.0
 50
0.0
 71
     0
 42
3.5
  3
HYSWLONGFANGSONG.TTF
  4

1001
ACAD
1000
汉仪长仿宋体
1071
    34306
  0
STYLE
  5
70
330
3
100
AcDbSymbolTableRecord
100
AcDbTextStyleTableRecord
  2
SLDTEXTSTYLE0
 70
     0
 40
0.0
 41
1.0
 50
0.0
 71
     0
 42
2.5
  3
GOTHIC.TTF
  4

1001
ACAD
1000
Century Gothic
1071
      290
  0
STYLE
  5
B6
330
3
100
AcDbSymbolTableRecord
100
AcDbTextStyleTableRecord
  2
SLDTEXTSTYLE1
 70
     0
 40
0.0
 41
1.0
 50
0.0
 71
     0
 42
3.5
  3
HYSWLONGFANGSONG.TTF
  4
bigfont
1001
ACAD
1000
汉仪长仿宋体
1071
      258
  0
STYLE
  5
C7
330
3
100
AcDbSymbolTableRecord
100
AcDbTextStyleTableRecord
  2
SLDTEXTSTYLE2
 70
     0
 40
0.0
 41
1.0
 50
0.0
 71
     0
 42
3.5
  3
HYSWLONGFANGSONG.TTF
  4

1001
ACAD
1000
汉仪长仿宋体
1071
      258
  0
STYLE
  5
100
330
3
100
AcDbSymbolTableRecord
100
AcDbTextStyleTableRecord
  2
SLDTEXTSTYLE3
 70
     0
 40
0.0
 41
0.913
 50
0.0
 71
     0
 42
3.5
  3
GOTHIC.TTF
  4

1001
ACAD
1000
Century Gothic
1071
      290
  0
ENDTAB
  0
TABLE
  2
VIEW
  5
6
330
0
100
AcDbSymbolTable
 70
     0
  0
ENDTAB
  0
TABLE
  2
UCS
  5
7
330
0
100
AcDbSymbolTable
 70
     0
  0
ENDTAB
  0
TABLE
  2
APPID
  5
9
330
0
100
AcDbSymbolTable
 70
     1
  0
APPID
  5
12
330
9
100
AcDbSymbolTableRecord
100
AcDbRegAppTableRecord
  2
ACAD
 70
     0
  0
ENDTAB
  0
TABLE
  2
DIMSTYLE
  5
A
330
0
100
AcDbSymbolTable
 70
     2
100
AcDbDimStyleTable
  0
DIMSTYLE
105
27
330
A
100
AcDbSymbolTableRecord
100
AcDbDimStyleTableRecord
  2
ISO-25
 70
     0
 41
2.5
 42
0.625
 43
3.75
 44
1.25
 73
     0
 74
     0
 77
     1
 78
     8
140
2.5
141
2.5
143
0.0393700787
147
0.625
171
     3
172
     1
178
     0
271
     2
272
     2
274
     3
278
    44
283
     0
284
     8
340
70
  0
DIMSTYLE
105
101
102
{ACAD_REACTORS
330
FF
102
}
330
A
100
AcDbSymbolTableRecord
100
AcDbDimStyleTableRecord
  2
SLDDIMSTYLE0
 70
     0
 41
4.08
 44
0.0
 45
0.000000001
 73
     0
 74
     0
 77
     1
 78
    12
 79
     3
140
3.5
141
0.0
147
0.875
172
     1
173
     1
178
     0
271
     0
272
     0
276
     2
284
    12
340
100
341
102
343
102
  0
ENDTAB
  0
TABLE
  2
BLOCK_RECORD
  5
1
330
0
100
AcDbSymbolTable
 70
    10
  0
BLOCK_RECORD
  5
1F
330
1
100
AcDbSymbolTableRecord
100
AcDbBlockTableRecord
  2
*Model_Space
340
22
  0
BLOCK_RECORD
  5
1B
330
1
100
AcDbSymbolTableRecord
100
AcDbBlockTableRecord
  2
*Paper_Space
340
1E
  0
BLOCK_RECORD
  5
23
330
1
100
AcDbSymbolTableRecord
100
AcDbBlockTableRecord
  2
*Paper_Space0
340
26
  0
BLOCK_RECORD
  5
102
330
1
100
AcDbSymbolTableRecord
100
AcDbBlockTableRecord
  2
_None
340
0
  0
BLOCK_RECORD
  5
105
330
1
100
AcDbSymbolTableRecord
100
AcDbBlockTableRecord
  2
_D
340
0
  0
BLOCK_RECORD
  5
10D
330
1
100
AcDbSymbolTableRecord
100
AcDbBlockTableRecord
  2
SW_CENTERMARKSYMBOL_0
340
0
102
{BLKREFS
331
118
102
}
  0
BLOCK_RECORD
  5
119
330
1
100
AcDbSymbolTableRecord
100
AcDbBlockTableRecord
  2
SW_CENTERMARKSYMBOL_1
340
0
102
{BLKREFS
331
124
102
}
  0
BLOCK_RECORD
  5
125
330
1
100
AcDbSymbolTableRecord
100
AcDbBlockTableRecord
  2
SW_CENTERMARKSYMBOL_2
340
0
102
{BLKREFS
331
130
102
}
  0
BLOCK_RECORD
  5
131
330
1
100
AcDbSymbolTableRecord
100
AcDbBlockTableRecord
  2
SW_CENTERMARKSYMBOL_3
340
0
102
{BLKREFS
331
13C
102
}
  0
BLOCK_RECORD
  5
13D
330
1
100
AcDbSymbolTableRecord
100
AcDbBlockTableRecord
  2
SW_CENTERMARKSYMBOL_4
340
0
102
{BLKREFS
331
148
102
}
  0
BLOCK_RECORD
  5
149
330
1
100
AcDbSymbolTableRecord
100
AcDbBlockTableRecord
  2
SW_CENTERMARKSYMBOL_5
340
0
102
{BLKREFS
331
154
102
}
  0
BLOCK_RECORD
  5
155
330
1
100
AcDbSymbolTableRecord
100
AcDbBlockTableRecord
  2
SW_CENTERMARKSYMBOL_6
340
0
102
{BLKREFS
331
160
102
}
  0
ENDTAB
  0
ENDSEC
  0
SECTION
  2
BLOCKS
  0
BLOCK
  5
20
330
1F
100
AcDbEntity
  8
0
100
AcDbBlockBegin
  2
*Model_Space
 70
     0
 10
0.0
 20
0.0
 30
0.0
  3
*Model_Space
  1

  0
ENDBLK
  5
21
330
1F
100
AcDbEntity
  8
0
100
AcDbBlockEnd
  0
BLOCK
  5
1C
330
1B
100
AcDbEntity
 67
     1
  8
0
100
AcDbBlockBegin
  2
*Paper_Space
 70
     0
 10
0.0
 20
0.0
 30
0.0
  3
*Paper_Space
  1

  0
ENDBLK
  5
1D
330
1B
100
AcDbEntity
 67
     1
  8
0
100
AcDbBlockEnd
  0
BLOCK
  5
24
330
23
100
AcDbEntity
  8
0
100
AcDbBlockBegin
  2
*Paper_Space0
 70
     0
 10
0.0
 20
0.0
 30
0.0
  3
*Paper_Space0
  1

  0
ENDBLK
  5
25
330
23
100
AcDbEntity
  8
0
100
AcDbBlockEnd
  0
BLOCK
  5
103
330
102
100
AcDbEntity
  8
0
100
AcDbBlockBegin
  2
_None
 70
     0
 10
0.0
 20
0.0
 30
0.0
  3
_None
  1

  0
ENDBLK
  5
104
330
102
100
AcDbEntity
  8
0
100
AcDbBlockEnd
  0
BLOCK
  5
106
330
105
100
AcDbEntity
  8
0
100
AcDbBlockBegin
  2
_D
 70
     0
 10
0.0
 20
0.0
 30
0.0
  3
_D
  1

  0
SOLID
  5
108
330
105
100
AcDbEntity
  8
标注层
100
AcDbTrace
 10
73.9115500447
 20
172.7357245268
 30
0.0
 11
69.8390925985
 21
172.1704331426
 31
0.0
 12
70.1020527484
 22
171.1890525031
 32
0.0
 13
70.1020527484
 23
171.1890525031
 33
0.0
  0
LINE
  5
109
330
105
100
AcDbEntity
  8
标注层
100
AcDbLine
 10
73.9115500447
 20
172.7357245268
 30
0.0
 11
54.1464723054
 21
167.4396879082
 31
0.0
  0
LINE
  5
10A
330
105
100
AcDbEntity
  8
标注层
100
AcDbLine
 10
73.9115500447
 20
172.7357245268
 30
0.0
 11
121.2419155329
 21
185.4178577369
 31
0.0
  0
MTEXT
  5
10B
330
105
100
AcDbEntity
  8
标注层
100
AcDbMText
 10
52.991162073
 20
171.7513643941
 30
0.0
 40
3.5
 41
0.0
 71
     1
 72
     1
  1
%%c
  7
SLDTEXTSTYLE3
 11
0.9659258262890682
 21
0.2588190451025209
 31
0.0
 73
     1
 44
1.0
  0
MTEXT
  5
10C
330
105
100
AcDbEntity
  8
标注层
100
AcDbMText
 10
58.0759014608
 20
173.1691746776
 30
0.0
 40
3.5
 41
0.0
 71
     1
 72
     1
  1
49
  7
SLDTEXTSTYLE3
 11
0.9659258262890682
 21
0.2588190451025209
 31
0.0
 73
     1
 44
1.0
  0
ENDBLK
  5
107
330
105
100
AcDbEntity
  8
0
100
AcDbBlockEnd
  0
BLOCK
  5
10E
330
10D
100
AcDbEntity
  8
0
100
AcDbBlockBegin
  2
SW_CENTERMARKSYMBOL_0
 70
     0
 10
0.0
 20
0.0
 30
0.0
  3
SW_CENTERMARKSYMBOL_0
  1

  0
LINE
  5
110
330
10D
100
AcDbEntity
  8
0
  6
Continuous
 62
     0
370
    18
100
AcDbLine
 10
0.0
 20
0.0
 30
0.0
 11
0.0
 21
2.5
 31
0.0
  0
LINE
  5
111
330
10D
100
AcDbEntity
  8
0
  6
Continuous
 62
     0
370
    18
100
AcDbLine
 10
0.0
 20
0.0
 30
0.0
 11
-2.5
 21
0.0
 31
0.0
  0
LINE
  5
112
330
10D
100
AcDbEntity
  8
0
  6
Continuous
 62
     0
370
    18
100
AcDbLine
 10
0.0
 20
0.0
 30
0.0
 11
0.0
 21
-2.5
 31
0.0
  0
LINE
  5
113
330
10D
100
AcDbEntity
  8
0
  6
Continuous
 62
     0
370
    18
100
AcDbLine
 10
0.0
 20
0.0
 30
0.0
 11
2.5
 21
0.0
 31
0.0
  0
LINE
  5
114
330
10D
100
AcDbEntity
  8
0
  6
Continuous
 62
     0
370
    18
100
AcDbLine
 10
0.0
 20
5.0
 30
0.0
 11
0.0
 21
5.6
 31
0.0
  0
LINE
  5
115
330
10D
100
AcDbEntity
  8
0
  6
Continuous
 62
     0
370
    18
100
AcDbLine
 10
-5.0
 20
0.0
 30
0.0
 11
-5.6
 21
0.0
 31
0.0
  0
LINE
  5
116
330
10D
100
AcDbEntity
  8
0
  6
Continuous
 62
     0
370
    18
100
AcDbLine
 10
0.0
 20
-5.0
 30
0.0
 11
0.0
 21
-5.6
 31
0.0
  0
LINE
  5
117
330
10D
100
AcDbEntity
  8
0
  6
Continuous
 62
     0
370
    18
100
AcDbLine
 10
5.0
 20
0.0
 30
0.0
 11
5.6
 21
0.0
 31
0.0
  0
ENDBLK
  5
10F
330
10D
100
AcDbEntity
  8
0
100
AcDbBlockEnd
  0
BLOCK
  5
11A
330
119
100
AcDbEntity
  8
0
100
AcDbBlockBegin
  2
SW_CENTERMARKSYMBOL_1
 70
     0
 10
0.0
 20
0.0
 30
0.0
  3
SW_CENTERMARKSYMBOL_1
  1

  0
LINE
  5
11C
330
119
100
AcDbEntity
  8
0
  6
Continuous
 62
     0
370
    18
100
AcDbLine
 10
0.0
 20
0.0
 30
0.0
 11
0.0
 21
2.5
 31
0.0
  0
LINE
  5
11D
330
119
100
AcDbEntity
  8
0
  6
Continuous
 62
     0
370
    18
100
AcDbLine
 10
0.0
 20
0.0
 30
0.0
 11
-2.5
 21
0.0
 31
0.0
  0
LINE
  5
11E
330
119
100
AcDbEntity
  8
0
  6
Continuous
 62
     0
370
    18
100
AcDbLine
 10
0.0
 20
0.0
 30
0.0
 11
0.0
 21
-2.5
 31
0.0
  0
LINE
  5
11F
330
119
100
AcDbEntity
  8
0
  6
Continuous
 62
     0
370
    18
100
AcDbLine
 10
0.0
 20
0.0
 30
0.0
 11
2.5
 21
0.0
 31
0.0
  0
LINE
  5
120
330
119
100
AcDbEntity
  8
0
  6
Continuous
 62
     0
370
    18
100
AcDbLine
 10
0.0
 20
5.0
 30
0.0
 11
0.0
 21
5.6
 31
0.0
  0
LINE
  5
121
330
119
100
AcDbEntity
  8
0
  6
Continuous
 62
     0
370
    18
100
AcDbLine
 10
-5.0
 20
0.0
 30
0.0
 11
-5.6
 21
0.0
 31
0.0
  0
LINE
  5
122
330
119
100
AcDbEntity
  8
0
  6
Continuous
 62
     0
370
    18
100
AcDbLine
 10
0.0
 20
-5.0
 30
0.0
 11
0.0
 21
-5.6
 31
0.0
  0
LINE
  5
123
330
119
100
AcDbEntity
  8
0
  6
Continuous
 62
     0
370
    18
100
AcDbLine
 10
5.0
 20
0.0
 30
0.0
 11
5.6
 21
0.0
 31
0.0
  0
ENDBLK
  5
11B
330
119
100
AcDbEntity
  8
0
100
AcDbBlockEnd
  0
BLOCK
  5
126
330
125
100
AcDbEntity
  8
0
100
AcDbBlockBegin
  2
SW_CENTERMARKSYMBOL_2
 70
     0
 10
0.0
 20
0.0
 30
0.0
  3
SW_CENTERMARKSYMBOL_2
  1

  0
LINE
  5
128
330
125
100
AcDbEntity
  8
0
  6
Continuous
 62
     0
370
    18
100
AcDbLine
 10
0.0
 20
0.0
 30
0.0
 11
0.0
 21
2.5
 31
0.0
  0
LINE
  5
129
330
125
100
AcDbEntity
  8
0
  6
Continuous
 62
     0
370
    18
100
AcDbLine
 10
0.0
 20
0.0
 30
0.0
 11
-2.5
 21
0.0
 31
0.0
  0
LINE
  5
12A
330
125
100
AcDbEntity
  8
0
  6
Continuous
 62
     0
370
    18
100
AcDbLine
 10
0.0
 20
0.0
 30
0.0
 11
0.0
 21
-2.5
 31
0.0
  0
LINE
  5
12B
330
125
100
AcDbEntity
  8
0
  6
Continuous
 62
     0
370
    18
100
AcDbLine
 10
0.0
 20
0.0
 30
0.0
 11
2.5
 21
0.0
 31
0.0
  0
LINE
  5
12C
330
125
100
AcDbEntity
  8
0
  6
Continuous
 62
     0
370
    18
100
AcDbLine
 10
0.0
 20
5.0
 30
0.0
 11
0.0
 21
5.6
 31
0.0
  0
LINE
  5
12D
330
125
100
AcDbEntity
  8
0
  6
Continuous
 62
     0
370
    18
100
AcDbLine
 10
-5.0
 20
0.0
 30
0.0
 11
-5.6
 21
0.0
 31
0.0
  0
LINE
  5
12E
330
125
100
AcDbEntity
  8
0
  6
Continuous
 62
     0
370
    18
100
AcDbLine
 10
0.0
 20
-5.0
 30
0.0
 11
0.0
 21
-5.6
 31
0.0
  0
LINE
  5
12F
330
125
100
AcDbEntity
  8
0
  6
Continuous
 62
     0
370
    18
100
AcDbLine
 10
5.0
 20
0.0
 30
0.0
 11
5.6
 21
0.0
 31
0.0
  0
ENDBLK
  5
127
330
125
100
AcDbEntity
  8
0
100
AcDbBlockEnd
  0
BLOCK
  5
132
330
131
100
AcDbEntity
  8
0
100
AcDbBlockBegin
  2
SW_CENTERMARKSYMBOL_3
 70
     0
 10
0.0
 20
0.0
 30
0.0
  3
SW_CENTERMARKSYMBOL_3
  1

  0
LINE
  5
134
330
131
100
AcDbEntity
  8
0
  6
Continuous
 62
     0
370
    18
100
AcDbLine
 10
0.0
 20
0.0
 30
0.0
 11
0.0
 21
2.5
 31
0.0
  0
LINE
  5
135
330
131
100
AcDbEntity
  8
0
  6
Continuous
 62
     0
370
    18
100
AcDbLine
 10
0.0
 20
0.0
 30
0.0
 11
-2.5
 21
0.0
 31
0.0
  0
LINE
  5
136
330
131
100
AcDbEntity
  8
0
  6
Continuous
 62
     0
370
    18
100
AcDbLine
 10
0.0
 20
0.0
 30
0.0
 11
0.0
 21
-2.5
 31
0.0
  0
LINE
  5
137
330
131
100
AcDbEntity
  8
0
  6
Continuous
 62
     0
370
    18
100
AcDbLine
 10
0.0
 20
0.0
 30
0.0
 11
2.5
 21
0.0
 31
0.0
  0
LINE
  5
138
330
131
100
AcDbEntity
  8
0
  6
Continuous
 62
     0
370
    18
100
AcDbLine
 10
0.0
 20
5.0
 30
0.0
 11
0.0
 21
5.6
 31
0.0
  0
LINE
  5
139
330
131
100
AcDbEntity
  8
0
  6
Continuous
 62
     0
370
    18
100
AcDbLine
 10
-5.0
 20
0.0
 30
0.0
 11
-5.6
 21
0.0
 31
0.0
  0
LINE
  5
13A
330
131
100
AcDbEntity
  8
0
  6
Continuous
 62
     0
370
    18
100
AcDbLine
 10
0.0
 20
-5.0
 30
0.0
 11
0.0
 21
-5.6
 31
0.0
  0
LINE
  5
13B
330
131
100
AcDbEntity
  8
0
  6
Continuous
 62
     0
370
    18
100
AcDbLine
 10
5.0
 20
0.0
 30
0.0
 11
5.6
 21
0.0
 31
0.0
  0
ENDBLK
  5
133
330
131
100
AcDbEntity
  8
0
100
AcDbBlockEnd
  0
BLOCK
  5
13E
330
13D
100
AcDbEntity
  8
0
100
AcDbBlockBegin
  2
SW_CENTERMARKSYMBOL_4
 70
     0
 10
0.0
 20
0.0
 30
0.0
  3
SW_CENTERMARKSYMBOL_4
  1

  0
LINE
  5
140
330
13D
100
AcDbEntity
  8
0
  6
Continuous
 62
     0
370
    18
100
AcDbLine
 10
0.0
 20
0.0
 30
0.0
 11
0.0
 21
2.5
 31
0.0
  0
LINE
  5
141
330
13D
100
AcDbEntity
  8
0
  6
Continuous
 62
     0
370
    18
100
AcDbLine
 10
0.0
 20
0.0
 30
0.0
 11
-2.5
 21
0.0
 31
0.0
  0
LINE
  5
142
330
13D
100
AcDbEntity
  8
0
  6
Continuous
 62
     0
370
    18
100
AcDbLine
 10
0.0
 20
0.0
 30
0.0
 11
0.0
 21
-2.5
 31
0.0
  0
LINE
  5
143
330
13D
100
AcDbEntity
  8
0
  6
Continuous
 62
     0
370
    18
100
AcDbLine
 10
0.0
 20
0.0
 30
0.0
 11
2.5
 21
0.0
 31
0.0
  0
LINE
  5
144
330
13D
100
AcDbEntity
  8
0
  6
Continuous
 62
     0
370
    18
100
AcDbLine
 10
0.0
 20
5.0
 30
0.0
 11
0.0
 21
5.6
 31
0.0
  0
LINE
  5
145
330
13D
100
AcDbEntity
  8
0
  6
Continuous
 62
     0
370
    18
100
AcDbLine
 10
-5.0
 20
0.0
 30
0.0
 11
-5.6
 21
0.0
 31
0.0
  0
LINE
  5
146
330
13D
100
AcDbEntity
  8
0
  6
Continuous
 62
     0
370
    18
100
AcDbLine
 10
0.0
 20
-5.0
 30
0.0
 11
0.0
 21
-5.6
 31
0.0
  0
LINE
  5
147
330
13D
100
AcDbEntity
  8
0
  6
Continuous
 62
     0
370
    18
100
AcDbLine
 10
5.0
 20
0.0
 30
0.0
 11
5.6
 21
0.0
 31
0.0
  0
ENDBLK
  5
13F
330
13D
100
AcDbEntity
  8
0
100
AcDbBlockEnd
  0
BLOCK
  5
14A
330
149
100
AcDbEntity
  8
0
100
AcDbBlockBegin
  2
SW_CENTERMARKSYMBOL_5
 70
     0
 10
0.0
 20
0.0
 30
0.0
  3
SW_CENTERMARKSYMBOL_5
  1

  0
LINE
  5
14C
330
149
100
AcDbEntity
  8
0
  6
Continuous
 62
     0
370
    18
100
AcDbLine
 10
0.0
 20
0.0
 30
0.0
 11
0.0
 21
2.5
 31
0.0
  0
LINE
  5
14D
330
149
100
AcDbEntity
  8
0
  6
Continuous
 62
     0
370
    18
100
AcDbLine
 10
0.0
 20
0.0
 30
0.0
 11
-2.5
 21
0.0
 31
0.0
  0
LINE
  5
14E
330
149
100
AcDbEntity
  8
0
  6
Continuous
 62
     0
370
    18
100
AcDbLine
 10
0.0
 20
0.0
 30
0.0
 11
0.0
 21
-2.5
 31
0.0
  0
LINE
  5
14F
330
149
100
AcDbEntity
  8
0
  6
Continuous
 62
     0
370
    18
100
AcDbLine
 10
0.0
 20
0.0
 30
0.0
 11
2.5
 21
0.0
 31
0.0
  0
LINE
  5
150
330
149
100
AcDbEntity
  8
0
  6
Continuous
 62
     0
370
    18
100
AcDbLine
 10
0.0
 20
5.0
 30
0.0
 11
0.0
 21
5.6
 31
0.0
  0
LINE
  5
151
330
149
100
AcDbEntity
  8
0
  6
Continuous
 62
     0
370
    18
100
AcDbLine
 10
-5.0
 20
0.0
 30
0.0
 11
-5.6
 21
0.0
 31
0.0
  0
LINE
  5
152
330
149
100
AcDbEntity
  8
0
  6
Continuous
 62
     0
370
    18
100
AcDbLine
 10
0.0
 20
-5.0
 30
0.0
 11
0.0
 21
-5.6
 31
0.0
  0
LINE
  5
153
330
149
100
AcDbEntity
  8
0
  6
Continuous
 62
     0
370
    18
100
AcDbLine
 10
5.0
 20
0.0
 30
0.0
 11
5.6
 21
0.0
 31
0.0
  0
ENDBLK
  5
14B
330
149
100
AcDbEntity
  8
0
100
AcDbBlockEnd
  0
BLOCK
  5
156
330
155
100
AcDbEntity
  8
0
100
AcDbBlockBegin
  2
SW_CENTERMARKSYMBOL_6
 70
     0
 10
0.0
 20
0.0
 30
0.0
  3
SW_CENTERMARKSYMBOL_6
  1

  0
LINE
  5
158
330
155
100
AcDbEntity
  8
0
  6
Continuous
 62
     0
370
    18
100
AcDbLine
 10
0.0
 20
0.0
 30
0.0
 11
0.0
 21
2.5
 31
0.0
  0
LINE
  5
159
330
155
100
AcDbEntity
  8
0
  6
Continuous
 62
     0
370
    18
100
AcDbLine
 10
0.0
 20
0.0
 30
0.0
 11
-2.5
 21
0.0
 31
0.0
  0
LINE
  5
15A
330
155
100
AcDbEntity
  8
0
  6
Continuous
 62
     0
370
    18
100
AcDbLine
 10
0.0
 20
0.0
 30
0.0
 11
0.0
 21
-2.5
 31
0.0
  0
LINE
  5
15B
330
155
100
AcDbEntity
  8
0
  6
Continuous
 62
     0
370
    18
100
AcDbLine
 10
0.0
 20
0.0
 30
0.0
 11
2.5
 21
0.0
 31
0.0
  0
LINE
  5
15C
330
155
100
AcDbEntity
  8
0
  6
Continuous
 62
     0
370
    18
100
AcDbLine
 10
0.0
 20
5.0
 30
0.0
 11
0.0
 21
14.5
 31
0.0
  0
LINE
  5
15D
330
155
100
AcDbEntity
  8
0
  6
Continuous
 62
     0
370
    18
100
AcDbLine
 10
-5.0
 20
0.0
 30
0.0
 11
-14.5
 21
0.0
 31
0.0
  0
LINE
  5
15E
330
155
100
AcDbEntity
  8
0
  6
Continuous
 62
     0
370
    18
100
AcDbLine
 10
0.0
 20
-5.0
 30
0.0
 11
0.0
 21
-14.5
 31
0.0
  0
LINE
  5
15F
330
155
100
AcDbEntity
  8
0
  6
Continuous
 62
     0
370
    18
100
AcDbLine
 10
5.0
 20
0.0
 30
0.0
 11
14.5
 21
0.0
 31
0.0
  0
ENDBLK
  5
157
330
155
100
AcDbEntity
  8
0
100
AcDbBlockEnd
  0
ENDSEC
  0
SECTION
  2
ENTITIES
  0
LINE
  5
71
330
1F
100
AcDbEntity
  8
粗实线层
370
    35
100
AcDbLine
 10
105.0
 20
40.0
 30
0.0
 11
155.0
 21
40.0
 31
0.0
  0
LINE
  5
72
330
1F
100
AcDbEntity
  8
0
  6
Continuous
 62
     7
370
    18
100
AcDbLine
 10
0.0
 20
0.0
 30
0.0
 11
210.0
 21
0.0
 31
0.0
  0
LINE
  5
73
330
1F
100
AcDbEntity
  8
0
  6
Continuous
 62
     7
370
    18
100
AcDbLine
 10
0.0
 20
0.0
 30
0.0
 11
0.0
 21
297.0
 31
0.0
  0
LINE
  5
74
330
1F
100
AcDbEntity
  8
0
  6
Continuous
 62
     7
370
    18
100
AcDbLine
 10
0.0
 20
297.0
 30
0.0
 11
210.0
 21
297.0
 31
0.0
  0
LINE
  5
75
330
1F
100
AcDbEntity
  8
0
  6
Continuous
 62
     7
370
    18
100
AcDbLine
 10
210.0
 20
0.0
 30
0.0
 11
210.0
 21
297.0
 31
0.0
  0
LINE
  5
76
330
1F
100
AcDbEntity
  8
粗实线层
370
    35
100
AcDbLine
 10
91.0
 20
61.0
 30
0.0
 11
91.0
 21
5.0
 31
0.0
  0
LINE
  5
77
330
1F
100
AcDbEntity
  8
粗实线层
370
    35
100
AcDbLine
 10
51.0
 20
33.0
 30
0.0
 11
51.0
 21
5.0
 31
0.0
  0
LINE
  5
78
330
1F
100
AcDbEntity
  8
粗实线层
370
    35
100
AcDbLine
 10
5.0
 20
280.27
 30
0.0
 11
65.0
 21
280.27
 31
0.0
  0
LINE
  5
79
330
1F
100
AcDbEntity
  8
粗实线层
370
    35
100
AcDbLine
 10
65.0
 20
280.27
 30
0.0
 11
65.0
 21
292.0
 31
0.0
  0
LINE
  5
7A
330
1F
100
AcDbEntity
  8
粗实线层
370
    35
100
AcDbLine
 10
205.0
 20
61.0
 30
0.0
 11
25.0
 21
61.0
 31
0.0
  0
LINE
  5
7B
330
1F
100
AcDbEntity
  8
粗实线层
370
    35
100
AcDbLine
 10
25.0
 20
61.0
 30
0.0
 11
25.0
 21
5.0
 31
0.0
  0
LINE
  5
7C
330
1F
100
AcDbEntity
  8
粗实线层
370
    35
100
AcDbLine
 10
25.0
 20
33.0
 30
0.0
 11
205.0
 21
33.0
 31
0.0
  0
LINE
  5
7D
330
1F
100
AcDbEntity
  8
粗实线层
370
    35
100
AcDbLine
 10
105.0
 20
61.0
 30
0.0
 11
105.0
 21
5.0
 31
0.0
  0
LINE
  5
7E
330
1F
100
AcDbEntity
  8
细实线层
370
    18
100
AcDbLine
 10
25.0
 20
54.0
 30
0.0
 11
105.0
 21
54.0
 31
0.0
  0
LINE
  5
7F
330
1F
100
AcDbEntity
  8
细实线层
370
    18
100
AcDbLine
 10
25.0
 20
47.0
 30
0.0
 11
105.0
 21
47.0
 31
0.0
  0
LINE
  5
80
330
1F
100
AcDbEntity
  8
粗实线层
370
    35
100
AcDbLine
 10
25.0
 20
40.0
 30
0.0
 11
105.0
 21
40.0
 31
0.0
  0
LINE
  5
81
330
1F
100
AcDbEntity
  8
细实线层
370
    18
100
AcDbLine
 10
25.0
 20
26.0
 30
0.0
 11
105.0
 21
26.0
 31
0.0
  0
LINE
  5
82
330
1F
100
AcDbEntity
  8
细实线层
370
    18
100
AcDbLine
 10
25.0
 20
19.0
 30
0.0
 11
105.0
 21
19.0
 31
0.0
  0
LINE
  5
83
330
1F
100
AcDbEntity
  8
细实线层
370
    18
100
AcDbLine
 10
25.0
 20
12.0
 30
0.0
 11
105.0
 21
12.0
 31
0.0
  0
LINE
  5
84
330
1F
100
AcDbEntity
  8
粗实线层
370
    35
100
AcDbLine
 10
105.0
 20
47.0
 30
0.0
 11
205.0
 21
47.0
 31
0.0
  0
LINE
  5
85
330
1F
100
AcDbEntity
  8
粗实线层
370
    35
100
AcDbLine
 10
155.0
 20
61.0
 30
0.0
 11
155.0
 21
5.0
 31
0.0
  0
LINE
  5
86
330
1F
100
AcDbEntity
  8
粗实线层
370
    35
100
AcDbLine
 10
105.0
 20
26.0
 30
0.0
 11
155.0
 21
26.0
 31
0.0
  0
LINE
  5
87
330
1F
100
AcDbEntity
  8
粗实线层
370
    35
100
AcDbLine
 10
105.0
 20
19.0
 30
0.0
 11
155.0
 21
19.0
 31
0.0
  0
LINE
  5
88
330
1F
100
AcDbEntity
  8
粗实线层
370
    35
100
AcDbLine
 10
155.0
 20
19.0
 30
0.0
 11
205.0
 21
19.0
 31
0.0
  0
LINE
  5
89
330
1F
100
AcDbEntity
  8
粗实线层
370
    35
100
AcDbLine
 10
155.0
 20
12.0
 30
0.0
 11
205.0
 21
12.0
 31
0.0
  0
LINE
  5
8A
330
1F
100
AcDbEntity
  8
粗实线层
370
    35
100
AcDbLine
 10
130.0
 20
33.0
 30
0.0
 11
130.0
 21
5.0
 31
0.0
  0
LINE
  5
8B
330
1F
100
AcDbEntity
  8
粗实线层
370
    35
100
AcDbLine
 10
155.0
 20
12.0
 30
0.0
 11
130.0
 21
12.0
 31
0.0
  0
LINE
  5
8C
330
1F
100
AcDbEntity
  8
粗实线层
370
    35
100
AcDbLine
 10
25.0
 20
5.0
 30
0.0
 11
205.0
 21
5.0
 31
0.0
  0
LINE
  5
8D
330
1F
100
AcDbEntity
  8
粗实线层
370
    35
100
AcDbLine
 10
77.0
 20
61.0
 30
0.0
 11
77.0
 21
33.0
 31
0.0
  0
LINE
  5
8E
330
1F
100
AcDbEntity
  8
粗实线层
370
    35
100
AcDbLine
 10
55.0
 20
61.0
 30
0.0
 11
55.0
 21
33.0
 31
0.0
  0
LINE
  5
8F
330
1F
100
AcDbEntity
  8
粗实线层
370
    35
100
AcDbLine
 10
39.0
 20
61.0
 30
0.0
 11
39.0
 21
33.0
 31
0.0
  0
LINE
  5
90
330
1F
100
AcDbEntity
  8
粗实线层
370
    35
100
AcDbLine
 10
32.0
 20
61.0
 30
0.0
 11
32.0
 21
33.0
 31
0.0
  0
LINE
  5
91
330
1F
100
AcDbEntity
  8
粗实线层
370
    35
100
AcDbLine
 10
205.0
 20
61.0
 30
0.0
 11
205.0
 21
5.0
 31
0.0
  0
LINE
  5
92
330
1F
100
AcDbEntity
  8
粗实线层
370
    35
100
AcDbLine
 10
77.0
 20
33.0
 30
0.0
 11
77.0
 21
5.0
 31
0.0
  0
LINE
  5
93
330
1F
100
AcDbEntity
  8
粗实线层
370
    35
100
AcDbLine
 10
65.0
 20
33.0
 30
0.0
 11
65.0
 21
5.0
 31
0.0
  0
LINE
  5
94
330
1F
100
AcDbEntity
  8
粗实线层
370
    35
100
AcDbLine
 10
37.0
 20
33.0
 30
0.0
 11
37.0
 21
5.0
 31
0.0
  0
LINE
  5
95
330
1F
100
AcDbEntity
  8
细实线层
  6
CENTERX2
370
    18
100
AcDbLine
 10
121.75
 20
16.0
 30
0.0
 11
121.75
 21
8.0
 31
0.0
  0
LINE
  5
96
330
1F
100
AcDbEntity
  8
粗实线层
370
    35
100
AcDbLine
 10
109.75
 20
10.25
 30
0.0
 11
109.75
 21
13.75
 31
0.0
  0
LINE
  5
97
330
1F
100
AcDbEntity
  8
粗实线层
370
    35
100
AcDbLine
 10
116.75
 20
8.5
 30
0.0
 11
116.75
 21
15.5
 31
0.0
  0
LINE
  5
98
330
1F
100
AcDbEntity
  8
粗实线层
370
    35
100
AcDbLine
 10
109.75
 20
13.75
 30
0.0
 11
116.75
 21
15.5
 31
0.0
  0
LINE
  5
99
330
1F
100
AcDbEntity
  8
粗实线层
370
    35
100
AcDbLine
 10
109.75
 20
10.25
 30
0.0
 11
116.75
 21
8.5
 31
0.0
  0
LINE
  5
9A
330
1F
100
AcDbEntity
  8
细实线层
370
    18
100
AcDbLine
 10
108.25
 20
12.0
 30
0.0
 11
126.75
 21
12.0
 31
0.0
  0
LINE
  5
9B
330
1F
100
AcDbEntity
  8
粗实线层
370
    35
100
AcDbLine
 10
180.0
 20
19.0
 30
0.0
 11
180.0
 21
5.0
 31
0.0
  0
LINE
  5
9C
330
1F
100
AcDbEntity
  8
轮廓实线层
  6
Continuous
370
    35
100
AcDbLine
 10
5.0
 20
5.0
 30
0.0
 11
5.0
 21
292.0
 31
0.0
  0
LINE
  5
9D
330
1F
100
AcDbEntity
  8
轮廓实线层
  6
Continuous
370
    35
100
AcDbLine
 10
5.0
 20
292.0
 30
0.0
 11
205.0
 21
292.0
 31
0.0
  0
LINE
  5
9E
330
1F
100
AcDbEntity
  8
轮廓实线层
  6
Continuous
370
    35
100
AcDbLine
 10
205.0
 20
292.0
 30
0.0
 11
205.0
 21
5.0
 31
0.0
  0
LINE
  5
9F
330
1F
100
AcDbEntity
  8
轮廓实线层
  6
Continuous
370
    35
100
AcDbLine
 10
205.0
 20
5.0
 30
0.0
 11
5.0
 21
5.0
 31
0.0
  0
LINE
  5
A0
330
1F
100
AcDbEntity
  8
轮廓实线层
  6
Continuous
370
    18
100
AcDbLine
 10
-0.001
 20
148.5
 30
0.0
 11
10.001
 21
148.5
 31
0.0
  0
LINE
  5
A1
330
1F
100
AcDbEntity
  8
轮廓实线层
  6
Continuous
370
    18
100
AcDbLine
 10
105.0
 20
297.001
 30
0.0
 11
105.0
 21
286.999
 31
0.0
  0
LINE
  5
A2
330
1F
100
AcDbEntity
  8
轮廓实线层
  6
Continuous
370
    18
100
AcDbLine
 10
210.001
 20
148.5
 30
0.0
 11
199.999
 21
148.5
 31
0.0
  0
LINE
  5
A3
330
1F
100
AcDbEntity
  8
轮廓实线层
  6
Continuous
370
    18
100
AcDbLine
 10
105.0
 20
-0.001
 30
0.0
 11
105.0
 21
10.001
 31
0.0
  0
LINE
  5
A4
330
1F
100
AcDbEntity
  8
轮廓实线层
  6
Continuous
370
    18
100
AcDbLine
 10
5.0
 20
48.5
 30
0.0
 11
0.0
 21
48.5
 31
0.0
  0
LINE
  5
A5
330
1F
100
AcDbEntity
  8
轮廓实线层
  6
Continuous
370
    18
100
AcDbLine
 10
205.0
 20
48.5
 30
0.0
 11
210.0
 21
48.5
 31
0.0
  0
LINE
  5
A6
330
1F
100
AcDbEntity
  8
轮廓实线层
  6
Continuous
370
    18
100
AcDbLine
 10
5.0
 20
98.5
 30
0.0
 11
0.0
 21
98.5
 31
0.0
  0
LINE
  5
A7
330
1F
100
AcDbEntity
  8
轮廓实线层
  6
Continuous
370
    18
100
AcDbLine
 10
205.0
 20
98.5
 30
0.0
 11
210.0
 21
98.5
 31
0.0
  0
LINE
  5
A8
330
1F
100
AcDbEntity
  8
轮廓实线层
  6
Continuous
370
    18
100
AcDbLine
 10
5.0
 20
148.5
 30
0.0
 11
0.0
 21
148.5
 31
0.0
  0
LINE
  5
A9
330
1F
100
AcDbEntity
  8
轮廓实线层
  6
Continuous
370
    18
100
AcDbLine
 10
205.0
 20
148.5
 30
0.0
 11
210.0
 21
148.5
 31
0.0
  0
LINE
  5
AA
330
1F
100
AcDbEntity
  8
轮廓实线层
  6
Continuous
370
    18
100
AcDbLine
 10
5.0
 20
198.5
 30
0.0
 11
0.0
 21
198.5
 31
0.0
  0
LINE
  5
AB
330
1F
100
AcDbEntity
  8
轮廓实线层
  6
Continuous
370
    18
100
AcDbLine
 10
205.0
 20
198.5
 30
0.0
 11
210.0
 21
198.5
 31
0.0
  0
LINE
  5
AC
330
1F
100
AcDbEntity
  8
轮廓实线层
  6
Continuous
370
    18
100
AcDbLine
 10
5.0
 20
248.5
 30
0.0
 11
0.0
 21
248.5
 31
0.0
  0
LINE
  5
AD
330
1F
100
AcDbEntity
  8
轮廓实线层
  6
Continuous
370
    18
100
AcDbLine
 10
205.0
 20
248.5
 30
0.0
 11
210.0
 21
248.5
 31
0.0
  0
LINE
  5
AE
330
1F
100
AcDbEntity
  8
轮廓实线层
  6
Continuous
370
    18
100
AcDbLine
 10
55.0
 20
292.0
 30
0.0
 11
55.0
 21
297.0
 31
0.0
  0
LINE
  5
AF
330
1F
100
AcDbEntity
  8
轮廓实线层
  6
Continuous
370
    18
100
AcDbLine
 10
55.0
 20
5.0
 30
0.0
 11
55.0
 21
0.0
 31
0.0
  0
LINE
  5
B0
330
1F
100
AcDbEntity
  8
轮廓实线层
  6
Continuous
370
    18
100
AcDbLine
 10
105.0
 20
292.0
 30
0.0
 11
105.0
 21
297.0
 31
0.0
  0
LINE
  5
B1
330
1F
100
AcDbEntity
  8
轮廓实线层
  6
Continuous
370
    18
100
AcDbLine
 10
105.0
 20
5.0
 30
0.0
 11
105.0
 21
0.0
 31
0.0
  0
LINE
  5
B2
330
1F
100
AcDbEntity
  8
轮廓实线层
  6
Continuous
370
    18
100
AcDbLine
 10
155.0
 20
292.0
 30
0.0
 11
155.0
 21
297.0
 31
0.0
  0
LINE
  5
B3
330
1F
100
AcDbEntity
  8
轮廓实线层
  6
Continuous
370
    18
100
AcDbLine
 10
155.0
 20
5.0
 30
0.0
 11
155.0
 21
0.0
 31
0.0
  0
CIRCLE
  5
B4
330
1F
100
AcDbEntity
  8
粗实线层
370
    35
100
AcDbCircle
 10
121.75
 20
12.0
 30
0.0
 40
1.749999999999867
  0
CIRCLE
  5
B5
330
1F
100
AcDbEntity
  8
粗实线层
370
    35
100
AcDbCircle
 10
121.75
 20
12.0
 30
0.0
 40
3.49999999999996
  0
MTEXT
  5
B7
330
1F
100
AcDbEntity
  8
细实线层
100
AcDbMText
 10
194.2500000801
 20
17.7844642646
 30
0.0
 40
3.5
 41
0.0
 71
     2
 72
     1
  1
页码
  7
SLDTEXTSTYLE1
 73
     1
 44
1.0
  0
MTEXT
  5
B8
330
1F
100
AcDbEntity
  8
细实线层
100
AcDbMText
 10
73.6274307556
 20
17.7844642646
 30
0.0
 40
3.5
 41
0.0
 71
     2
 72
     1
  1
标\U+51C6\U+5316
  7
SLDTEXTSTYLE1
 73
     1
 44
1.0
  0
MTEXT
  5
B9
330
1F
100
AcDbEntity
  8
细实线层
100
AcDbMText
 10
32.6406249255
 20
17.7844642646
 30
0.0
 40
3.5
 41
0.0
 71
     2
 72
     1
  1
审 \U+6838
  7
SLDTEXTSTYLE1
 73
     1
 44
1.0
  0
MTEXT
  5
BA
330
1F
100
AcDbEntity
  8
细实线层
100
AcDbMText
 10
72.6430556774
 20
10.8108190807
 30
0.0
 40
3.5
 41
0.0
 71
     2
 72
     1
  1
\U+6279 \U+51C6
  7
SLDTEXTSTYLE1
 73
     1
 44
1.0
  0
MTEXT
  5
BB
330
1F
100
AcDbEntity
  8
细实线层
100
AcDbMText
 10
32.6430556774
 20
24.7844642646
 30
0.0
 40
3.5
 41
0.0
 71
     2
 72
     1
  1
\U+6821 对
  7
SLDTEXTSTYLE1
 73
     1
 44
1.0
  0
MTEXT
  5
BC
330
1F
100
AcDbEntity
  8
细实线层
100
AcDbMText
 10
119.2548611183
 20
31.7844642646
 30
0.0
 40
3.5
 41
0.0
 71
     2
 72
     1
  1
\U+6570\U+91CF
  7
SLDTEXTSTYLE1
 73
     1
 44
1.0
  0
MTEXT
  5
BD
330
1F
100
AcDbEntity
  8
细实线层
100
AcDbMText
 10
99.7524305992
 20
38.7844642646
 30
0.0
 40
3.5
 41
0.0
 71
     2
 72
     1
  1
\U+65E5\U+671F
  7
SLDTEXTSTYLE1
 73
     1
 44
1.0
  0
MTEXT
  5
BE
330
1F
100
AcDbEntity
  8
细实线层
100
AcDbMText
 10
146.137406579
 20
17.7844642646
 30
0.0
 40
3.5
 41
0.0
 71
     2
 72
     1
  1
\U+91CD\U+91CF(kg)
  7
SLDTEXTSTYLE1
 73
     1
 44
1.0
  0
MTEXT
  5
BF
330
1F
100
AcDbEntity
  8
细实线层
100
AcDbMText
 10
37.0024305992
 20
38.7844642646
 30
0.0
 40
3.5
 41
0.0
 71
     2
 72
     1
  1
处\U+6570
  7
SLDTEXTSTYLE1
 73
     1
 44
1.0
  0
MTEXT
  5
C0
330
1F
100
AcDbEntity
  8
细实线层
100
AcDbMText
 10
30.0000000801
 20
38.7844642646
 30
0.0
 40
3.5
 41
0.0
 71
     2
 72
     1
  1
标记
  7
SLDTEXTSTYLE1
 73
     1
 44
1.0
  0
MTEXT
  5
C1
330
1F
100
AcDbEntity
  8
细实线层
100
AcDbMText
 10
32.6406249255
 20
10.7844642646
 30
0.0
 40
3.5
 41
0.0
 71
     2
 72
     1
  1
\U+5DE5 艺
  7
SLDTEXTSTYLE1
 73
     1
 44
1.0
  0
MTEXT
  5
C2
330
1F
100
AcDbEntity
  8
细实线层
100
AcDbMText
 10
70.3798608892
 20
38.7844642646
 30
0.0
 40
3.5
 41
0.0
 71
     2
 72
     1
  1
\U+66F4\U+6539\U+6587\U+4EF6\U+53F7
  7
SLDTEXTSTYLE1
 73
     1
 44
1.0
  0
MTEXT
  5
C3
330
1F
100
AcDbEntity
  8
细实线层
100
AcDbMText
 10
48.8344590798
 20
38.7631400187
 30
0.0
 40
3.5
 41
0.0
 71
     2
 72
     1
  1
\U+5206\U+533A
  7
SLDTEXTSTYLE1
 73
     1
 44
1.0
  0
MTEXT
  5
C4
330
1F
100
AcDbEntity
  8
细实线层
100
AcDbMText
 10
85.7500000801
 20
38.7844642646
 30
0.0
 40
3.5
 41
0.0
 71
     2
 72
     1
  1
签\U+540D
  7
SLDTEXTSTYLE1
 73
     1
 44
1.0
  0
MTEXT
  5
C5
330
1F
100
AcDbEntity
  8
细实线层
100
AcDbMText
 10
144.2500000801
 20
31.7844642646
 30
0.0
 40
3.5
 41
0.0
 71
     2
 72
     1
  1
\U+6BD4\U+4F8B
  7
SLDTEXTSTYLE1
 73
     1
 44
1.0
  0
MTEXT
  5
C6
330
1F
100
AcDbEntity
  8
细实线层
100
AcDbMText
 10
32.6406249255
 20
31.7844642646
 30
0.0
 40
3.5
 41
0.0
 71
     2
 72
     1
  1
设 计
  7
SLDTEXTSTYLE1
 73
     1
 44
1.0
  0
MTEXT
  5
C8
330
1F
100
AcDbEntity
  8
细实线层
100
AcDbMText
 10
118.04687502
 20
24.7844642646
 30
0.0
 40
3.5
 41
0.0
 71
     2
 72
     1
  1
6
  7
SLDTEXTSTYLE2
 73
     1
 44
1.0
  0
MTEXT
  5
C9
330
1F
100
AcDbEntity
  8
细实线层
100
AcDbMText
 10
186.0338538885
 20
28.2844642646
 30
0.0
 40
3.5
 41
0.0
 71
     2
 72
     1
  1
PG-1M10002
  7
SLDTEXTSTYLE2
 73
     1
 44
1.0
  0
MTEXT
  5
CA
330
1F
100
AcDbEntity
  8
细实线层
100
AcDbMText
 10
185.2500009388
 20
42.2844642646
 30
0.0
 40
3.5
 41
0.0
 71
     2
 72
     1
  1
轮毂电\U+673A垫\U+7247
  7
SLDTEXTSTYLE1
 73
     1
 44
1.0
  0
MTEXT
  5
CB
330
1F
100
AcDbEntity
  8
细实线层
100
AcDbMText
 10
136.6427083239
 20
56.2261892063
 30
0.0
 40
3.5
 41
0.0
 71
     2
 72
     1
  1
5mm 5052铝\U+677F
  7
SLDTEXTSTYLE1
 73
     1
 44
1.0
  0
MTEXT
  5
CC
330
1F
100
AcDbEntity
  8
细实线层
100
AcDbMText
 10
169.2500000801
 20
17.7844642646
 30
0.0
 40
3.5
 41
0.0
 71
     2
 72
     1
  1
\U+7248\U+672C
  7
SLDTEXTSTYLE1
 73
     1
 44
1.0
  0
MTEXT
  5
CD
330
1F
100
AcDbEntity
  8
细实线层
100
AcDbMText
 10
168.32031252
 20
10.7844642646
 30
0.0
 40
3.5
 41
0.0
 71
     2
 72
     1
  1
B
  7
SLDTEXTSTYLE2
 73
     1
 44
1.0
  0
MTEXT
  5
CE
330
1F
100
AcDbEntity
  8
细实线层
100
AcDbMText
 10
143.4770834446
 20
24.7844645556
 30
0.0
 40
3.5
 41
0.0
 71
     2
 72
     1
  1
1:1
  7
SLDTEXTSTYLE2
 73
     1
 44
1.0
  0
MTEXT
  5
CF
330
1F
100
AcDbEntity
  8
细实线层
100
AcDbMText
 10
199.2944444427
 20
10.7844645556
 30
0.0
 40
3.5
 41
0.0
 71
     2
 72
     1
  1
1
  7
SLDTEXTSTYLE2
 73
     1
 44
1.0
  0
MTEXT
  5
D0
330
1F
100
AcDbEntity
  8
细实线层
100
AcDbMText
 10
186.7944444427
 20
10.7844645556
 30
0.0
 40
3.5
 41
0.0
 71
     2
 72
     1
  1
1
  7
SLDTEXTSTYLE2
 73
     1
 44
1.0
  0
MTEXT
  5
D1
330
1F
100
AcDbEntity
  8
细实线层
100
AcDbMText
 10
161.0032016302
 20
32.0283525436
 30
0.0
 40
2.5
 41
0.0
 71
     2
 72
     1
  1
图\U+53F7\U+FF1A
  7
SLDTEXTSTYLE1
 73
     1
 44
1.0
  0
MTEXT
  5
D2
330
1F
100
AcDbEntity
  8
细实线层
100
AcDbMText
 10
161.0032016302
 20
46.1428728448
 30
0.0
 40
2.5
 41
0.0
 71
     2
 72
     1
  1
\U+540D\U+79F0\U+FF1A
  7
SLDTEXTSTYLE1
 73
     1
 44
1.0
  0
MTEXT
  5
D3
330
1F
100
AcDbEntity
  8
细实线层
100
AcDbMText
 10
110.8272880069
 20
59.7918242625
 30
0.0
 40
2.5
 41
0.0
 71
     2
 72
     1
  1
\U+6750\U+6599\U+FF1A
  7
SLDTEXTSTYLE1
 73
     1
 44
1.0
  0
MTEXT
  5
D4
330
1F
100
AcDbEntity
  8
轮廓实线层
100
AcDbMText
 10
3.32031252
 20
28.6017372829
 30
0.0
 40
3.5
 41
0.0
 71
     2
 72
     1
  1
A
  7
SLDTEXTSTYLE2
 73
     1
 44
1.0
  0
MTEXT
  5
D5
330
1F
100
AcDbEntity
  8
轮廓实线层
100
AcDbMText
 10
208.32031252
 20
28.6017372829
 30
0.0
 40
3.5
 41
0.0
 71
     2
 72
     1
  1
A
  7
SLDTEXTSTYLE2
 73
     1
 44
1.0
  0
MTEXT
  5
D6
330
1F
100
AcDbEntity
  8
轮廓实线层
100
AcDbMText
 10
3.32031252
 20
75.3517372829
 30
0.0
 40
3.5
 41
0.0
 71
     2
 72
     1
  1
B
  7
SLDTEXTSTYLE2
 73
     1
 44
1.0
  0
MTEXT
  5
D7
330
1F
100
AcDbEntity
  8
轮廓实线层
100
AcDbMText
 10
208.32031252
 20
75.3517372829
 30
0.0
 40
3.5
 41
0.0
 71
     2
 72
     1
  1
B
  7
SLDTEXTSTYLE2
 73
     1
 44
1.0
  0
MTEXT
  5
D8
330
1F
100
AcDbEntity
  8
轮廓实线层
100
AcDbMText
 10
3.4272569427
 20
125.3517372829
 30
0.0
 40
3.5
 41
0.0
 71
     2
 72
     1
  1
C
  7
SLDTEXTSTYLE2
 73
     1
 44
1.0
  0
MTEXT
  5
D9
330
1F
100
AcDbEntity
  8
轮廓实线层
100
AcDbMText
 10
208.4272569427
 20
125.3517372829
 30
0.0
 40
3.5
 41
0.0
 71
     2
 72
     1
  1
C
  7
SLDTEXTSTYLE2
 73
     1
 44
1.0
  0
MTEXT
  5
DA
330
1F
100
AcDbEntity
  8
轮廓实线层
100
AcDbMText
 10
3.42968752
 20
175.3517372829
 30
0.0
 40
3.5
 41
0.0
 71
     2
 72
     1
  1
D
  7
SLDTEXTSTYLE2
 73
     1
 44
1.0
  0
MTEXT
  5
DB
330
1F
100
AcDbEntity
  8
轮廓实线层
100
AcDbMText
 10
208.42968752
 20
175.3517372829
 30
0.0
 40
3.5
 41
0.0
 71
     2
 72
     1
  1
D
  7
SLDTEXTSTYLE2
 73
     1
 44
1.0
  0
MTEXT
  5
DC
330
1F
100
AcDbEntity
  8
轮廓实线层
100
AcDbMText
 10
3.3178819427
 20
225.3517372829
 30
0.0
 40
3.5
 41
0.0
 71
     2
 72
     1
  1
E
  7
SLDTEXTSTYLE2
 73
     1
 44
1.0
  0
MTEXT
  5
DD
330
1F
100
AcDbEntity
  8
轮廓实线层
100
AcDbMText
 10
208.3178819427
 20
225.3517372829
 30
0.0
 40
3.5
 41
0.0
 71
     2
 72
     1
  1
E
  7
SLDTEXTSTYLE2
 73
     1
 44
1.0
  0
MTEXT
  5
DE
330
1F
100
AcDbEntity
  8
轮廓实线层
100
AcDbMText
 10
3.224305544
 20
272.1017372829
 30
0.0
 40
3.5
 41
0.0
 71
     2
 72
     1
  1
F
  7
SLDTEXTSTYLE2
 73
     1
 44
1.0
  0
MTEXT
  5
DF
330
1F
100
AcDbEntity
  8
轮廓实线层
100
AcDbMText
 10
208.224305544
 20
272.1017372829
 30
0.0
 40
3.5
 41
0.0
 71
     2
 72
     1
  1
F
  7
SLDTEXTSTYLE2
 73
     1
 44
1.0
  0
MTEXT
  5
E0
330
1F
100
AcDbEntity
  8
轮廓实线层
100
AcDbMText
 10
30.5444444427
 20
4.3517372829
 30
0.0
 40
3.5
 41
0.0
 71
     2
 72
     1
  1
4
  7
SLDTEXTSTYLE2
 73
     1
 44
1.0
  0
MTEXT
  5
E1
330
1F
100
AcDbEntity
  8
轮廓实线层
100
AcDbMText
 10
30.5444444427
 20
296.3517372829
 30
0.0
 40
3.5
 41
0.0
 71
     2
 72
     1
  1
4
  7
SLDTEXTSTYLE2
 73
     1
 44
1.0
  0
MTEXT
  5
E2
330
1F
100
AcDbEntity
  8
轮廓实线层
100
AcDbMText
 10
80.5444444427
 20
4.3517372829
 30
0.0
 40
3.5
 41
0.0
 71
     2
 72
     1
  1
3
  7
SLDTEXTSTYLE2
 73
     1
 44
1.0
  0
MTEXT
  5
E3
330
1F
100
AcDbEntity
  8
轮廓实线层
100
AcDbMText
 10
80.5444444427
 20
296.3517372829
 30
0.0
 40
3.5
 41
0.0
 71
     2
 72
     1
  1
3
  7
SLDTEXTSTYLE2
 73
     1
 44
1.0
  0
MTEXT
  5
E4
330
1F
100
AcDbEntity
  8
轮廓实线层
100
AcDbMText
 10
130.5444444427
 20
4.3517372829
 30
0.0
 40
3.5
 41
0.0
 71
     2
 72
     1
  1
2
  7
SLDTEXTSTYLE2
 73
     1
 44
1.0
  0
MTEXT
  5
E5
330
1F
100
AcDbEntity
  8
轮廓实线层
100
AcDbMText
 10
130.5444444427
 20
296.3517372829
 30
0.0
 40
3.5
 41
0.0
 71
     2
 72
     1
  1
2
  7
SLDTEXTSTYLE2
 73
     1
 44
1.0
  0
MTEXT
  5
E6
330
1F
100
AcDbEntity
  8
轮廓实线层
100
AcDbMText
 10
180.5444444427
 20
4.3517372829
 30
0.0
 40
3.5
 41
0.0
 71
     2
 72
     1
  1
1
  7
SLDTEXTSTYLE2
 73
     1
 44
1.0
  0
MTEXT
  5
E7
330
1F
100
AcDbEntity
  8
轮廓实线层
100
AcDbMText
 10
180.5444444427
 20
296.3517372829
 30
0.0
 40
3.5
 41
0.0
 71
     2
 72
     1
  1
1
  7
SLDTEXTSTYLE2
 73
     1
 44
1.0
  0
MTEXT
  5
E8
330
1F
100
AcDbEntity
  8
细实线层
100
AcDbMText
 10
114.0017365441
 20
44.7040213154
 30
0.0
 40
2.5
 41
0.0
 71
     2
 72
     1
  1
\U+7269\U+6599编码\U+FF1A
  7
SLDTEXTSTYLE1
 73
     1
 44
1.0
  0
MTEXT
  5
E9
330
1F
100
AcDbEntity
  8
细实线层
100
AcDbMText
 10
190.3406128807
 20
58.4936546322
 30
0.0
 40
3.5
 41
0.0
 71
     2
 72
     1
  1
\U+9999\U+6E2F\U+667A\U+80FD\U+5EFA\U+9020\U+7814发\U+4E2D\U+5FC3
  7
SLDTEXTSTYLE1
 73
     1
 44
1.0
  0
MTEXT
  5
EA
330
1F
100
AcDbEntity
  8
细实线层
100
AcDbMText
 10
203.1990447737
 20
10.5175644157
 30
0.0
 40
3.5
 41
0.0
 71
     2
 72
     1
  1
页
  7
SLDTEXTSTYLE1
 73
     1
 44
1.0
  0
MTEXT
  5
EB
330
1F
100
AcDbEntity
  8
细实线层
100
AcDbMText
 10
195.6091045574
 20
10.5175644157
 30
0.0
 40
3.5
 41
0.0
 71
     2
 72
     1
  1
\U+5171
  7
SLDTEXTSTYLE1
 73
     1
 44
1.0
  0
MTEXT
  5
EC
330
1F
100
AcDbEntity
  8
细实线层
100
AcDbMText
 10
183.1590318172
 20
10.5175644157
 30
0.0
 40
3.5
 41
0.0
 71
     2
 72
     1
  1
\U+7B2C
  7
SLDTEXTSTYLE1
 73
     1
 44
1.0
  0
MTEXT
  5
ED
330
1F
100
AcDbEntity
  8
细实线层
100
AcDbMText
 10
191.1041531821
 20
10.5175644157
 30
0.0
 40
3.5
 41
0.0
 71
     2
 72
     1
  1
页
  7
SLDTEXTSTYLE1
 73
     1
 44
1.0
  0
MTEXT
  5
EE
330
1F
100
AcDbEntity
  8
细实线层
100
AcDbMText
 10
115.6901169766
 20
37.7040213154
 30
0.0
 40
2.5
 41
0.0
 71
     2
 72
     1
  1
关\U+91CD\U+4EF6标记\U+FF1A
  7
SLDTEXTSTYLE1
 73
     1
 44
1.0
  0
MTEXT
  5
EF
330
1F
100
AcDbEntity
  8
细实线层
100
AcDbMText
 10
202.6632022313
 20
53.2409270238
 30
0.0
 40
2.5
 41
0.0
 71
     2
 72
     1
  1
  HONG KONG CENTER FOR CONSTRUCTION ROBOTICS
  7
SLDTEXTSTYLE2
 73
     1
 44
1.0
  0
CIRCLE
  5
F0
330
1F
100
AcDbEntity
  8
0
  6
Continuous
 62
     7
370
    25
100
AcDbCircle
 10
80.2562247131
 20
189.0767911319
 30
0.0
 40
3.099999999999994
  0
CIRCLE
  5
F1
330
1F
100
AcDbEntity
  8
0
  6
Continuous
 62
     7
370
    25
100
AcDbCircle
 10
97.5767327888
 20
199.0767911319
 30
0.0
 40
3.100000000000023
  0
CIRCLE
  5
F2
330
1F
100
AcDbEntity
  8
0
  6
Continuous
 62
     7
370
    25
100
AcDbCircle
 10
114.8972408645
 20
189.0767911319
 30
0.0
 40
3.099999999999994
  0
CIRCLE
  5
F3
330
1F
100
AcDbEntity
  8
0
  6
Continuous
 62
     7
370
    25
100
AcDbCircle
 10
114.8972408645
 20
169.0767911319
 30
0.0
 40
3.099999999999994
  0
CIRCLE
  5
F4
330
1F
100
AcDbEntity
  8
0
  6
Continuous
 62
     7
370
    25
100
AcDbCircle
 10
97.5767327888
 20
159.0767911319
 30
0.0
 40
3.099999999999966
  0
CIRCLE
  5
F5
330
1F
100
AcDbEntity
  8
0
  6
Continuous
 62
     7
370
    25
100
AcDbCircle
 10
80.2562247131
 20
169.0767911319
 30
0.0
 40
3.099999999999994
  0
ARC
  5
F6
330
1F
100
AcDbEntity
  8
0
  6
Continuous
 62
     7
370
    25
100
AcDbCircle
 10
92.3917270259
 20
161.1356173899
 30
0.0
 40
2.000000000000012
100
AcDbArc
 50
329.6212141627
 51
59.6212141627
  0
LINE
  5
F7
330
1F
100
AcDbEntity
  8
0
  6
Continuous
 62
     7
370
    25
100
AcDbLine
 10
85.4663068333
 20
167.5135916102
 30
0.0
 11
93.4031557814
 21
162.8610193351
 31
0.0
  0
ARC
  5
F8
330
1F
100
AcDbEntity
  8
0
  6
Continuous
 62
     7
370
    25
100
AcDbCircle
 10
84.4548780779
 20
165.788189665
 30
0.0
 40
2.000000000000026
100
AcDbArc
 50
59.6212141627
 51
149.6212141627
  0
LINE
  5
F9
330
1F
100
AcDbEntity
  8
0
  6
Continuous
 62
     7
370
    25
100
AcDbLine
 10
81.3683029821
 20
164.4775855644
 30
0.0
 11
82.7294761326
 21
166.7996184205
 31
0.0
  0
ARC
  5
FA
330
1F
100
AcDbEntity
  8
0
  6
Continuous
 62
     7
370
    25
100
AcDbCircle
 10
79.6429010368
 20
165.4890143199
 30
0.0
 40
2.000000000000002
100
AcDbArc
 50
217.1498138484
 51
329.6212141627
  0
ARC
  5
FB
330
1F
100
AcDbEntity
  8
0
  6
Continuous
 62
     7
370
    25
100
AcDbCircle
 10
97.5767327888
 20
179.0767911319
 30
0.0
 40
24.5
100
AcDbArc
 50
262.0926144771
 51
217.1498138484
  0
ARC
  5
FC
330
1F
100
AcDbEntity
  8
0
  6
Continuous
 62
     7
370
    25
100
AcDbCircle
 10
94.4813577659
 20
156.7907270229
 30
0.0
 40
2.000000000000008
100
AcDbArc
 50
149.6212141627
 51
262.0926144771
  0
LINE
  5
FD
330
1F
100
AcDbEntity
  8
0
  6
Continuous
 62
     7
370
    25
100
AcDbLine
 10
94.1171289712
 20
160.1241886344
 30
0.0
 11
92.7559558207
 21
157.8021557784
 31
0.0
  0
CIRCLE
  5
FE
330
1F
100
AcDbEntity
  8
0
  6
Continuous
 62
     7
370
    25
100
AcDbCircle
 10
97.5767327888
 20
179.0767911319
 30
0.0
 40
12.00000000000003
  0
DIMENSION
  5
FF
330
1F
100
AcDbEntity
  8
标注层
100
AcDbDimension
  2
_D
 10
121.2419155329
 20
185.4178577369
 30
0.0
 11
59.0987345431
 21
168.7666498961
 31
0.0
 70
   163
  1
<>
 71
     1
 42
-1.0
  3
SLDDIMSTYLE0
100
AcDbDiametricDimension
 15
73.9115500447
 25
172.7357245268
 35
0.0
 40
0.0
  0
INSERT
  5
118
330
1F
100
AcDbEntity
  8
0
  6
Continuous
 62
     7
370
     0
100
AcDbBlockReference
  2
SW_CENTERMARKSYMBOL_0
 10
80.2562247131
 20
169.0767911319
 30
0.0
  0
INSERT
  5
124
330
1F
100
AcDbEntity
  8
0
  6
Continuous
 62
     7
370
     0
100
AcDbBlockReference
  2
SW_CENTERMARKSYMBOL_1
 10
97.5767327888
 20
159.0767911319
 30
0.0
  0
INSERT
  5
130
330
1F
100
AcDbEntity
  8
0
  6
Continuous
 62
     7
370
     0
100
AcDbBlockReference
  2
SW_CENTERMARKSYMBOL_2
 10
114.8972408645
 20
169.0767911319
 30
0.0
  0
INSERT
  5
13C
330
1F
100
AcDbEntity
  8
0
  6
Continuous
 62
     7
370
     0
100
AcDbBlockReference
  2
SW_CENTERMARKSYMBOL_3
 10
114.8972408645
 20
189.0767911319
 30
0.0
  0
INSERT
  5
148
330
1F
100
AcDbEntity
  8
0
  6
Continuous
 62
     7
370
     0
100
AcDbBlockReference
  2
SW_CENTERMARKSYMBOL_4
 10
97.5767327888
 20
199.0767911319
 30
0.0
  0
INSERT
  5
154
330
1F
100
AcDbEntity
  8
0
  6
Continuous
 62
     7
370
     0
100
AcDbBlockReference
  2
SW_CENTERMARKSYMBOL_5
 10
80.2562247131
 20
189.0767911319
 30
0.0
  0
INSERT
  5
160
330
1F
100
AcDbEntity
  8
0
  6
Continuous
 62
     7
370
     0
100
AcDbBlockReference
  2
SW_CENTERMARKSYMBOL_6
 10
97.5767327888
 20
179.0767911319
 30
0.0
  0
LINE
  5
161
330
1F
100
AcDbEntity
  8
0
  6
Continuous
 62
     7
370
    25
100
AcDbLine
 10
194.5711980314
 20
77.2828361339
 30
0.0
 11
194.5711980314
 21
81.3655401933
 31
0.0
  0
LINE
  5
162
330
1F
100
AcDbEntity
  8
0
  6
Continuous
 62
     7
370
    25
100
AcDbLine
 10
150.123810305
 20
73.5318230727
 30
0.0
 11
150.123810305
 21
69.4491190133
 31
0.0
  0
LINE
  5
163
330
1F
100
AcDbEntity
  8
0
  6
Continuous
 62
     7
370
    25
100
AcDbLine
 10
145.782054862
 20
83.1396174471
 30
0.0
 11
145.782054862
 21
79.0569133876
 31
0.0
  0
LWPOLYLINE
  5
164
330
1F
100
AcDbEntity
  8
0
  6
Continuous
 62
     7
370
    25
100
AcDbPolyline
 90
       51
 70
   128
 43
0.0
 10
167.0868481511
 20
93.7833149727
 10
167.3442976678
 20
93.6147359027
 10
167.5631174131
 20
93.4288587976
 10
167.739856469
 20
93.2286150506
 10
167.871727555
 20
93.017162625
 10
167.9566509852
 20
92.7978362521
 10
167.9932874665
 20
92.5740948397
 10
167.9810592197
 20
92.3494669235
 10
167.9201590914
 20
92.1274950199
 10
167.8115475131
 20
91.9116797586
 10
167.6569373544
 20
91.705424675
 10
167.4587669096
 20
91.5119825351
 10
167.2201614452
 20
91.3344040369
 10
166.9448839119
 20
91.1754896995
 10
166.6372756007
 20
91.0377456969
 10
166.3021876786
 20
90.9233443342
 10
165.9449046821
 20
90.8340897894
 10
165.5710611777
 20
90.7713896599
 10
165.1865529007
 20
90.7362327642
 10
164.7974437762
 20
90.7291735475
 10
164.4098702878
 20
90.750323338
 10
164.0299447007
 20
90.7993485907
 10
163.6636586684
 20
90.8754761482
 10
163.3167887406
 20
90.9775054335
 10
162.9948052631
 20
91.1038273836
 10
162.7027861077
 20
91.2524498261
 10
162.445336591
 20
91.4210288962
 10
162.2265168457
 20
91.6069060012
 10
162.0497777898
 20
91.8071497483
 10
161.9179067038
 20
92.0186021738
 10
161.8329832735
 20
92.2379285467
 10
161.7963467923
 20
92.4616699592
 10
161.8085750391
 20
92.6862978753
 10
161.8694751674
 20
92.9082697789
 10
161.9780867456
 20
93.1240850402
 10
162.1326969044
 20
93.3303401238
 10
162.3308673491
 20
93.5237822637
 10
162.5694728135
 20
93.7013607619
 10
162.8447503469
 20
93.8602750993
 10
163.152358658
 20
93.9980191019
 10
163.4874465802
 20
94.1124204646
 10
163.8447295766
 20
94.2016750094
 10
164.2185730811
 20
94.2643751389
 10
164.6030813581
 20
94.2995320346
 10
164.9921904825
 20
94.3065912513
 10
165.379763971
 20
94.2854414608
 10
165.7596895581
 20
94.2364162081
 10
166.1259755904
 20
94.1602886506
 10
166.4728455182
 20
94.0582593653
 10
166.7948289957
 20
93.9319374152
 10
167.0868481511
 20
93.7833149727
  0
LWPOLYLINE
  5
165
330
1F
100
AcDbEntity
  8
0
  6
Continuous
 62
     7
370
    25
100
AcDbPolyline
 90
       51
 70
   128
 43
0.0
 10
186.4053646768
 20
90.7950538849
 10
186.6628141935
 20
90.6264748148
 10
186.8816339389
 20
90.4405977098
 10
187.0583729948
 20
90.2403539627
 10
187.1902440808
 20
90.0289015372
 10
187.275167511
 20
89.8095751643
 10
187.3118039923
 20
89.5858337518
 10
187.2995757454
 20
89.3612058356
 10
187.2386756172
 20
89.1392339321
 10
187.1300640389
 20
88.9234186708
 10
186.9754538802
 20
88.7171635872
 10
186.7772834354
 20
88.5237214473
 10
186.538677971
 20
88.3461429491
 10
186.2634004377
 20
88.1872286117
 10
185.9557921265
 20
88.049484609
 10
185.6207042044
 20
87.9350832464
 10
185.2634212079
 20
87.8458287016
 10
184.8895777035
 20
87.7831285721
 10
184.5050694265
 20
87.7479716763
 10
184.115960302
 20
87.7409124597
 10
183.7283868135
 20
87.7620622502
 10
183.3484612264
 20
87.8110875029
 10
182.9821751942
 20
87.8872150604
 10
182.6353052663
 20
87.9892443456
 10
182.3133217888
 20
88.1155662958
 10
182.0213026335
 20
88.2641887383
 10
181.7638531168
 20
88.4327678083
 10
181.5450333715
 20
88.6186449134
 10
181.3682943155
 20
88.8188886604
 10
181.2364232296
 20
89.030341086
 10
181.1514997993
 20
89.2496674589
 10
181.114863318
 20
89.4734088713
 10
181.1270915649
 20
89.6980367875
 10
181.1879916932
 20
89.920008691
 10
181.2966032714
 20
90.1358239524
 10
181.4512134302
 20
90.342079036
 10
181.6493838749
 20
90.5355211759
 10
181.8879893393
 20
90.7130996741
 10
182.1632668727
 20
90.8720140115
 10
182.4708751838
 20
91.0097580141
 10
182.805963106
 20
91.1241593768
 10
183.1632461024
 20
91.2134139216
 10
183.5370896068
 20
91.2761140511
 10
183.9215978839
 20
91.3112709468
 10
184.3107070083
 20
91.3183301635
 10
184.6982804968
 20
91.297180373
 10
185.0782060839
 20
91.2481551203
 10
185.4444921161
 20
91.1720275627
 10
185.791362044
 20
91.0699982775
 10
186.1133455215
 20
90.9436763274
 10
186.4053646768
 20
90.7950538849
  0
LWPOLYLINE
  5
166
330
1F
100
AcDbEntity
  8
0
  6
Continuous
 62
     7
370
    25
100
AcDbPolyline
 90
       51
 70
   128
 43
0.0
 10
191.5817455789
 20
79.6427116788
 10
191.8391950956
 20
79.4741326088
 10
192.0580148409
 20
79.2882555037
 10
192.2347538968
 20
79.0880117567
 10
192.3666249828
 20
78.8765593311
 10
192.4515484131
 20
78.6572329582
 10
192.4881848944
 20
78.4334915458
 10
192.4759566475
 20
78.2088636296
 10
192.4150565192
 20
77.9868917261
 10
192.306444941
 20
77.7710764647
 10
192.1518347822
 20
77.5648213811
 10
191.9536643375
 20
77.3713792412
 10
191.7150588731
 20
77.193800743
 10
191.4397813397
 20
77.0348864056
 10
191.1321730286
 20
76.897142403
 10
190.7970851064
 20
76.7827410403
 10
190.43980211
 20
76.6934864955
 10
190.0659586055
 20
76.630786366
 10
189.6814503285
 20
76.5956294703
 10
189.2923412041
 20
76.5885702536
 10
188.9047677156
 20
76.6097200441
 10
188.5248421285
 20
76.6587452968
 10
188.1585560963
 20
76.7348728544
 10
187.8116861684
 20
76.8369021396
 10
187.4897026909
 20
76.9632240897
 10
187.1976835355
 20
77.1118465322
 10
186.9402340189
 20
77.2804256023
 10
186.7214142735
 20
77.4663027073
 10
186.5446752176
 20
77.6665464544
 10
186.4128041316
 20
77.8779988799
 10
186.3278807014
 20
78.0973252528
 10
186.2912442201
 20
78.3210666653
 10
186.3034724669
 20
78.5456945815
 10
186.3643725952
 20
78.767666485
 10
186.4729841735
 20
78.9834817463
 10
186.6275943322
 20
79.1897368299
 10
186.825764777
 20
79.3831789698
 10
187.0643702414
 20
79.560757468
 10
187.3396477747
 20
79.7196718054
 10
187.6472560859
 20
79.8574158081
 10
187.982344008
 20
79.9718171707
 10
188.3396270045
 20
80.0610717155
 10
188.7134705089
 20
80.123771845
 10
189.0979787859
 20
80.1589287408
 10
189.4870879104
 20
80.1659879574
 10
189.8746613988
 20
80.1448381669
 10
190.2545869859
 20
80.0958129142
 10
190.6208730182
 20
80.0196853567
 10
190.967742946
 20
79.9176560715
 10
191.2897264235
 20
79.7913341213
 10
191.5817455789
 20
79.6427116788
  0
LWPOLYLINE
  5
167
330
1F
100
AcDbEntity
  8
0
  6
Continuous
 62
     7
370
    25
100
AcDbPolyline
 90
       51
 70
   128
 43
0.0
 10
177.4396099552
 20
71.4786305606
 10
177.6970594719
 20
71.3100514905
 10
177.9158792172
 20
71.1241743855
 10
178.0926182731
 20
70.9239306384
 10
178.2244893591
 20
70.7124782129
 10
178.3094127893
 20
70.49315184
 10
178.3460492706
 20
70.2694104275
 10
178.3338210238
 20
70.0447825114
 10
178.2729208955
 20
69.8228106078
 10
178.1643093172
 20
69.6069953465
 10
178.0096991585
 20
69.4007402629
 10
177.8115287137
 20
69.207298123
 10
177.5729232493
 20
69.0297196248
 10
177.297645716
 20
68.8708052874
 10
176.9900374048
 20
68.7330612848
 10
176.6549494827
 20
68.6186599221
 10
176.2976664862
 20
68.5294053773
 10
175.9238229818
 20
68.4667052478
 10
175.5393147048
 20
68.4315483521
 10
175.1502055803
 20
68.4244891354
 10
174.7626320919
 20
68.4456389259
 10
174.3827065048
 20
68.4946641786
 10
174.0164204725
 20
68.5707917361
 10
173.6695505447
 20
68.6728210214
 10
173.3475670672
 20
68.7991429715
 10
173.0555479118
 20
68.947765414
 10
172.7980983951
 20
69.116344484
 10
172.5792786498
 20
69.3022215891
 10
172.4025395939
 20
69.5024653361
 10
172.2706685079
 20
69.7139177617
 10
172.1857450776
 20
69.9332441346
 10
172.1491085964
 20
70.156985547
 10
172.1613368432
 20
70.3816134632
 10
172.2222369715
 20
70.6035853668
 10
172.3308485497
 20
70.8194006281
 10
172.4854587085
 20
71.0256557117
 10
172.6836291532
 20
71.2190978516
 10
172.9222346176
 20
71.3966763498
 10
173.197512151
 20
71.5555906872
 10
173.5051204621
 20
71.6933346898
 10
173.8402083843
 20
71.8077360525
 10
174.1974913807
 20
71.8969905973
 10
174.5713348852
 20
71.9596907268
 10
174.9558431622
 20
71.9948476225
 10
175.3449522866
 20
72.0019068392
 10
175.7325257751
 20
71.9807570487
 10
176.1124513622
 20
71.931731796
 10
176.4787373945
 20
71.8556042385
 10
176.8256073223
 20
71.7535749532
 10
177.1475907998
 20
71.6272530031
 10
177.4396099552
 20
71.4786305606
  0
LWPOLYLINE
  5
168
330
1F
100
AcDbEntity
  8
0
  6
Continuous
 62
     7
370
    25
100
AcDbPolyline
 90
       51
 70
   128
 43
0.0
 10
158.1210934294
 20
74.4668916484
 10
158.3785429461
 20
74.2983125784
 10
158.5973626914
 20
74.1124354733
 10
158.7741017473
 20
73.9121917263
 10
158.9059728333
 20
73.7007393007
 10
158.9908962636
 20
73.4814129278
 10
159.0275327448
 20
73.2576715154
 10
159.015304498
 20
73.0330435992
 10
158.9544043697
 20
72.8110716957
 10
158.8457927915
 20
72.5952564343
 10
158.6911826327
 20
72.3890013507
 10
158.493012188
 20
72.1955592108
 10
158.2544067236
 20
72.0179807126
 10
157.9791291902
 20
71.8590663752
 10
157.671520879
 20
71.7213223726
 10
157.3364329569
 20
71.6069210099
 10
156.9791499605
 20
71.5176664651
 10
156.605306456
 20
71.4549663356
 10
156.220798179
 20
71.4198094399
 10
155.8316890546
 20
71.4127502232
 10
155.4441155661
 20
71.4339000137
 10
155.064189979
 20
71.4829252664
 10
154.6979039467
 20
71.559052824
 10
154.3510340189
 20
71.6610821092
 10
154.0290505414
 20
71.7874040593
 10
153.737031386
 20
71.9360265018
 10
153.4795818693
 20
72.1046055719
 10
153.260762124
 20
72.2904826769
 10
153.0840230681
 20
72.490726424
 10
152.9521519821
 20
72.7021788495
 10
152.8672285519
 20
72.9215052224
 10
152.8305920706
 20
73.1452466349
 10
152.8428203174
 20
73.3698745511
 10
152.9037204457
 20
73.5918464546
 10
153.0123320239
 20
73.8076617159
 10
153.1669421827
 20
74.0139167995
 10
153.3651126275
 20
74.2073589394
 10
153.6037180919
 20
74.3849374376
 10
153.8789956252
 20
74.543851775
 10
154.1866039364
 20
74.6815957777
 10
154.5216918585
 20
74.7959971403
 10
154.8789748549
 20
74.8852516851
 10
155.2528183594
 20
74.9479518146
 10
155.6373266364
 20
74.9831087104
 10
156.0264357608
 20
74.990167927
 10
156.4140092493
 20
74.9690181365
 10
156.7939348364
 20
74.9199928838
 10
157.1602208687
 20
74.8438653263
 10
157.5070907965
 20
74.7418360411
 10
157.829074274
 20
74.6155140909
 10
158.1210934294
 20
74.4668916484
  0
LWPOLYLINE
  5
169
330
1F
100
AcDbEntity
  8
0
  6
Continuous
 62
     7
370
    25
100
AcDbPolyline
 90
       51
 70
   128
 43
0.0
 10
152.9447125273
 20
85.6192338545
 10
153.202162044
 20
85.4506547844
 10
153.4209817894
 20
85.2647776794
 10
153.5977208453
 20
85.0645339323
 10
153.7295919313
 20
84.8530815068
 10
153.8145153615
 20
84.6337551339
 10
153.8511518428
 20
84.4100137214
 10
153.8389235959
 20
84.1853858052
 10
153.7780234677
 20
83.9634139017
 10
153.6694118894
 20
83.7475986404
 10
153.5148017306
 20
83.5413435568
 10
153.3166312859
 20
83.3479014169
 10
153.0780258215
 20
83.1703229187
 10
152.8027482882
 20
83.0114085813
 10
152.495139977
 20
82.8736645786
 10
152.1600520548
 20
82.759263216
 10
151.8027690584
 20
82.6700086712
 10
151.428925554
 20
82.6073085417
 10
151.0444172769
 20
82.5721516459
 10
150.6553081525
 20
82.5650924293
 10
150.267734664
 20
82.5862422198
 10
149.8878090769
 20
82.6352674725
 10
149.5215230447
 20
82.71139503
 10
149.1746531168
 20
82.8134243152
 10
148.8526696393
 20
82.9397462654
 10
148.560650484
 20
83.0883687079
 10
148.3032009673
 20
83.2569477779
 10
148.0843812219
 20
83.442824883
 10
147.907642166
 20
83.64306863
 10
147.7757710801
 20
83.8545210556
 10
147.6908476498
 20
84.0738474285
 10
147.6542111685
 20
84.2975888409
 10
147.6664394154
 20
84.5222167571
 10
147.7273395436
 20
84.7441886606
 10
147.8359511219
 20
84.960003922
 10
147.9905612807
 20
85.1662590056
 10
148.1887317254
 20
85.3597011455
 10
148.4273371898
 20
85.5372796437
 10
148.7026147232
 20
85.6961939811
 10
149.0102230343
 20
85.8339379837
 10
149.3453109565
 20
85.9483393464
 10
149.7025939529
 20
86.0375938912
 10
150.0764374573
 20
86.1002940207
 10
150.4609457344
 20
86.1354509164
 10
150.8500548588
 20
86.1425101331
 10
151.2376283473
 20
86.1213603426
 10
151.6175539344
 20
86.0723350899
 10
151.9838399666
 20
85.9962075323
 10
152.3307098945
 20
85.8941782471
 10
152.652693372
 20
85.767856297
 10
152.9447125273
 20
85.6192338545
  0
LWPOLYLINE
  5
16A
330
1F
100
AcDbEntity
  8
0
  6
Continuous
 62
     7
370
    25
100
AcDbPolyline
 90
       11
 70
   128
 43
0.0
 10
155.6537512281
 20
76.4498674383
 10
155.7089020827
 20
76.2715129459
 10
155.7150431168
 20
76.0903737468
 10
155.6720231179
 20
75.9109100892
 10
155.5809013811
 20
75.7375409639
 10
155.4439216259
 20
75.5745352942
 10
155.2644567485
 20
75.4259068207
 10
155.0469257699
 20
75.2953152696
 10
154.7966850246
 20
75.1859762384
 10
154.5198962703
 20
75.1005820168
 10
154.2233749647
 20
75.041235294
  0
LINE
  5
16B
330
1F
100
AcDbEntity
  8
0
  6
Continuous
 62
     7
370
    25
100
AcDbLine
 10
153.3314169213
 20
81.5889202432
 30
0.0
 11
155.6537512281
 21
76.4498674383
 31
0.0
  0
ARC
  5
16C
330
1F
100
AcDbEntity
  8
0
  6
Continuous
 62
     7
370
    25
100
AcDbCircle
 10
151.4818615984
 20
80.1415596559
 30
0.0
 40
2.348554355781678
100
AcDbArc
 50
38.0447852714
 51
104.5630176361
  0
LINE
  5
16D
330
1F
100
AcDbEntity
  8
0
  6
Continuous
 62
     7
370
    25
100
AcDbLine
 10
148.286910146
 20
82.0224320547
 30
0.0
 11
150.8913300898
 21
82.4146588836
 31
0.0
  0
LWPOLYLINE
  5
16E
330
1F
100
AcDbEntity
  8
0
  6
Continuous
 62
     7
370
    25
100
AcDbPolyline
 90
       13
 70
   128
 43
0.0
 10
145.8007976913
 20
83.2973132029
 10
145.7827608611
 20
83.108942342
 10
145.8181047523
 20
82.9213904999
 10
145.9058856907
 20
82.7396652704
 10
146.043759944
 20
82.5686186784
 10
146.2280462992
 20
82.4128176312
 10
146.4538243501
 20
82.2764219834
 10
146.715065871
 20
82.1630734695
 10
147.0047957695
 20
82.0757984706
 10
147.3152783192
 20
82.0169272104
 10
147.6382237026
 20
81.988031539
 10
147.9650093471
 20
81.9898829647
 10
148.286910146
 20
82.0224320547
  0
LWPOLYLINE
  5
16F
330
1F
100
AcDbEntity
  8
0
  6
Continuous
 62
     7
370
    25
100
AcDbPolyline
 90
      125
 70
   128
 43
0.0
 10
145.8007976913
 20
83.2973132029
 10
145.9730002623
 20
83.9165290838
 10
146.1925837626
 20
84.5307293105
 10
146.4591164558
 20
85.1387062668
 10
146.7720742958
 20
85.7392645722
 10
147.1308419572
 20
86.3312234327
 10
147.5347140451
 20
86.913418962
 10
147.982896482
 20
87.48470647
 10
148.4745080693
 20
88.0439627139
 10
149.0085822197
 20
88.5900881058
 10
149.5840688574
 20
89.1220088756
 10
150.1998364833
 20
89.6386791815
 10
150.8546743993
 20
90.1390831667
 10
151.5472950888
 20
90.6222369565
 10
152.2763367482
 20
91.0871905929
 10
153.0403659645
 20
91.5330299025
 10
153.8378805335
 20
91.9588782933
 10
154.6673124133
 20
92.3638984791
 10
155.5270308076
 20
92.7472941252
 10
156.4153453719
 20
93.1083114139
 10
157.330509537
 20
93.4462405275
 10
158.2707239431
 20
93.7604170428
 10
159.2341399775
 20
94.0502232384
 10
160.2188634095
 20
94.3150893088
 10
161.2229581147
 20
94.5544944846
 10
162.2444498814
 20
94.7679680569
 10
163.2813302927
 20
94.9550903022
 10
164.3315606751
 20
95.1154933082
 10
165.3930761069
 20
95.2488616968
 10
166.4637894782
 20
95.3549332444
 10
167.5415955944
 20
95.4334993971
 10
168.6243753155
 20
95.4844056813
 10
169.7099997225
 20
95.5075520071
 10
170.7963343035
 20
95.5028928651
 10
171.88124315
 20
95.470437416
 10
172.962593157
 20
95.4102494722
 10
174.0382582164
 20
95.3224473731
 10
175.1061233981
 20
95.2072037516
 10
176.1640891074
 20
95.0647451952
 10
177.2100752137
 20
94.8953518004
 10
178.2420251403
 20
94.6993566217
 10
179.2579099078
 20
94.4771450173
 10
180.2557321234
 20
94.2291538907
 10
181.2335299084
 20
93.9558708325
 10
182.1893807552
 20
93.657833161
 10
183.1214053073
 20
93.3356268661
 10
184.0277710548
 20
92.9898854574
 10
184.906695937
 20
92.6212887178
 10
185.7564518462
 20
92.2305613678
 10
186.5753680259
 20
91.8184716403
 10
187.3618343552
 20
91.3858297697
 10
188.1143045149
 20
90.9334863996
 10
188.8312990277
 20
90.4623309098
 10
189.5114081673
 20
89.9732896675
 10
190.1532947298
 20
89.4673242065
 10
190.7556966631
 20
88.9454293362
 10
191.317429548
 20
88.4086311858
 10
191.8373889276
 20
87.8579851867
 10
192.3145524781
 20
87.2945739975
 10
192.7479820194
 20
86.719505375
 10
193.1368253592
 20
86.1339099965
 10
193.4803179691
 20
85.5389392368
 10
193.7777844874
 20
84.9357629039
 10
194.0286400471
 20
84.3255669394
 10
194.2323914259
 20
83.7095510867
 10
194.3886380159
 20
83.0889265318
 10
194.4970726111
 20
82.4649135225
 10
194.5574820117
 20
81.8387389686
 10
194.5697474431
 20
81.2116340298
 10
194.5338447895
 20
80.5848316953
 10
194.4498446413
 20
79.9595643591
 10
194.3179121563
 20
79.3370613974
 10
194.1383067349
 20
78.7185467509
 10
193.9113815103
 20
78.105236519
 10
193.6375826539
 20
77.4983365679
 10
193.3174484983
 20
76.8990401607
 10
192.9516084786
 20
76.3085256102
 10
192.5407818952
 20
75.7279539631
 10
192.0857764991
 20
75.1584667165
 10
191.587486904
 20
74.6011835738
 10
191.0468928274
 20
74.0572002432
 10
190.4650571641
 20
73.5275862834
 10
189.8431238965
 20
73.0133830005
 10
189.1823158453
 20
72.5156014008
 10
188.4839322654
 20
72.035220203
 10
187.7493462911
 20
71.5731839136
 10
186.9800022365
 20
71.1304009702
 10
186.1774127557
 20
70.7077419554
 10
185.3431558684
 20
70.3060378845
 10
184.4788718579
 20
69.9260785725
 10
183.5862600453
 20
69.5686110802
 10
182.6670754491
 20
69.2343382464
 10
181.7231253336
 20
68.923917305
 10
180.7562656567
 20
68.6379585936
 10
179.7683974197
 20
68.3770243529
 10
178.7614629305
 20
68.1416276215
 10
177.7374419839
 20
67.9322312273
 10
176.6983479698
 20
67.7492468773
 10
175.6462239139
 20
67.593034348
 10
174.5831384612
 20
67.4639007784
 10
173.5111818087
 20
67.3621000659
 10
172.4324615952
 20
67.2878323669
 10
171.3490987581
 20
67.2412437038
 10
170.2632233628
 20
67.2224256774
 10
169.1769704148
 20
67.2314152868
 10
168.092475662
 20
67.2681948572
 10
167.0118713954
 20
67.3326920739
 10
165.9372822566
 20
67.424780125
 10
164.8708210605
 20
67.5442779506
 10
163.8145846413
 20
67.6909505989
 10
162.7706497293
 20
67.8645096878
 10
161.7410688686
 20
68.0646139723
 10
160.7278663803
 20
68.2908700151
 10
159.7330343836
 20
68.5428329605
 10
158.7585288779
 20
68.820007409
 10
157.8062658977
 20
69.121848391
 10
156.878117745
 20
69.4477624385
 10
155.9759093082
 20
69.7971087523
 10
155.1014144742
 20
70.1692004613
 10
154.2563526402
 20
70.5633059735
 10
153.4423853337
 20
70.978650414
 10
152.6611129451
 20
71.414417149
 10
151.9140715816
 20
71.869749391
 10
151.2027300465
 20
72.3437518837
 10
150.5284869516
 20
72.835492662
  0
LWPOLYLINE
  5
170
330
1F
100
AcDbEntity
  8
0
  6
Continuous
 62
     7
370
    25
100
AcDbPolyline
 90
       13
 70
   128
 43
0.0
 10
151.618955021
 20
74.6490084651
 10
151.3105337499
 20
74.5866307644
 10
151.0238267887
 20
74.4960899244
 10
150.7664891516
 20
74.379803366
 10
150.5453916986
 20
74.2408759155
 10
150.3664376842
 20
74.083016906
 10
150.2344051422
 20
73.9104411392
 10
150.1528193133
 20
73.7277563512
 10
150.1238585217
 20
73.5398401866
 10
150.1482960141
 20
73.3517099668
 10
150.2254793149
 20
73.1683887283
 10
150.3533476464
 20
72.9947711089
 10
150.5284869516
 20
72.835492662
  0
LINE
  5
171
330
1F
100
AcDbEntity
  8
0
  6
Continuous
 62
     7
370
    25
100
AcDbLine
 10
154.2233749647
 20
75.041235294
 30
0.0
 11
151.618955021
 21
74.6490084651
 31
0.0
  0
LWPOLYLINE
  5
172
330
1F
100
AcDbEntity
  8
0
  6
Continuous
 62
     7
370
    25
100
AcDbPolyline
 90
      100
 70
   128
 43
0.0
 10
178.5564794057
 20
86.2639888643
 10
179.0775655932
 20
85.9434478874
 10
179.5623863173
 20
85.6044732919
 10
180.008989376
 20
85.248430009
 10
180.4155764564
 20
84.8767516992
 10
180.7805103759
 20
84.49093498
 10
181.1023216744
 20
84.092533399
 10
181.3797145314
 20
83.6831511789
 10
181.6115719836
 20
83.2644367573
 10
181.7969604231
 20
82.8380761494
 10
181.9351333559
 20
82.405786159
 10
182.0255344085
 20
81.9693074653
 10
182.0677995678
 20
81.5303976138
 10
182.0617586467
 20
81.0908239397
 10
182.0074359701
 20
80.6523564509
 10
181.9050502761
 20
80.2167607014
 10
181.7550138357
 20
79.7857906815
 10
181.5579307929
 20
79.3611817552
 10
181.3145947314
 20
78.944643673
 10
181.0259854797
 20
78.5378536866
 10
180.6932651654
 20
78.1424497958
 10
180.3177735357
 20
77.7600241524
 10
179.9010225629
 20
77.3921166496
 10
179.4446903561
 20
77.040208721
 10
178.950614404
 20
76.7057173756
 10
178.4207841762
 20
76.3899894921
 10
177.8573331118
 20
76.0942963951
 10
177.2625300296
 20
75.8198287365
 10
176.6387699915
 20
75.5676917006
 10
175.9885646591
 20
75.3389005543
 10
175.3145321799
 20
75.1343765587
 10
174.6193866446
 20
74.9549432598
 10
173.905927159
 20
74.8013231722
 10
173.1770265727
 20
74.6741348697
 10
172.435619911
 20
74.5738904948
 10
171.6846925569
 20
74.5009936962
 10
170.9272682298
 20
74.4557380035
 10
170.1663968102
 20
74.4383056454
 10
169.4051420587
 20
74.4487668159
 10
168.6465692795
 20
74.4870793916
 10
167.8937329775
 20
74.5530891013
 10
167.1496645588
 20
74.6465301471
 10
166.4173601242
 20
74.7670262749
 10
165.6997684053
 20
74.9140922893
 10
164.9997788905
 20
75.0871360075
 10
164.3202101908
 20
75.2854606434
 10
163.6637986893
 20
75.5082676137
 10
163.0331875235
 20
75.7546597534
 10
162.430915942
 20
76.0236449283
 10
161.8594090799
 20
76.31414003
 10
161.3209681936
 20
76.6249753374
 10
160.8177613945
 20
76.9548992263
 10
160.3518149188
 20
77.3025832096
 10
159.9250049685
 20
77.6666272867
 10
159.5390501566
 20
78.0455655806
 10
159.195504587
 20
78.4378722405
 10
158.8957515964
 20
78.8419675859
 10
158.6409981842
 20
79.2562244675
 10
158.4322701526
 20
79.6789748191
 10
158.2704079757
 20
80.1085163742
 10
158.1560634154
 20
80.5431195206
 10
158.0896968967
 20
80.9810342647
 10
158.0715756544
 20
81.4204972785
 10
158.1017726561
 20
81.8597389996
 10
158.1801663093
 20
82.2969907564
 10
158.3064409504
 20
82.7304918906
 10
158.480088116
 20
83.158496846
 10
158.7004085901
 20
83.5792821979
 10
158.9665152202
 20
83.991153592
 10
159.2773364885
 20
84.3924525676
 10
159.6316208277
 20
84.7815632354
 10
160.0279416597
 20
85.1569187841
 10
160.4647031403
 20
85.5170077894
 10
160.9401465854
 20
85.8603802999
 10
161.4523575519
 20
86.1856536757
 10
161.999273547
 20
86.4915181557
 10
162.5786923331
 20
86.7767421317
 10
163.1882807952
 20
87.0401771073
 10
163.8255843358
 20
87.2807623229
 10
164.4880367583
 20
87.4975290267
 10
165.1729706007
 20
87.6896043758
 10
165.8776278762
 20
87.8562149504
 10
166.5991711787
 20
87.9966898686
 10
167.3346951078
 20
88.1104634874
 10
168.0812379684
 20
88.1970776808
 10
168.8357936958
 20
88.2561836838
 10
169.5953239604
 20
88.2875434976
 10
170.356770402
 20
88.2910308471
 10
171.1170669444
 20
88.26663169
 10
171.8731521418
 20
88.2144442732
 10
172.6219815061
 20
88.1346787369
 10
173.3605397655
 20
88.0276562688
 10
174.0858530068
 20
87.8938078107
 10
174.7950006494
 20
87.7336723229
 10
175.4851272061
 20
87.5478946147
 10
176.1534537808
 20
87.3372227473
 10
176.7972892583
 20
87.1025050218
 10
177.4140411404
 20
86.8446865638
 10
178.0012259849
 20
86.5648055173
 10
178.5564794057
 20
86.2639888643
  0
LWPOLYLINE
  5
173
330
1F
100
AcDbEntity
  8
0
  6
Continuous
 62
     7
370
    25
100
AcDbPolyline
 90
       58
 70
   128
 43
0.0
 10
194.5711980314
 20
77.2828361339
 10
194.5697474431
 20
77.1289299704
 10
194.5338447895
 20
76.5021276359
 10
194.4498446413
 20
75.8768602997
 10
194.3179121563
 20
75.254357338
 10
194.1383067349
 20
74.6358426915
 10
193.9113815103
 20
74.0225324595
 10
193.6375826539
 20
73.4156325085
 10
193.3174484983
 20
72.8163361012
 10
192.9516084786
 20
72.2258215508
 10
192.5407818952
 20
71.6452499037
 10
192.0857764991
 20
71.0757626571
 10
191.587486904
 20
70.5184795143
 10
191.0468928274
 20
69.9744961838
 10
190.4650571641
 20
69.4448822239
 10
189.8431238965
 20
68.930678941
 10
189.1823158453
 20
68.4328973414
 10
188.4839322654
 20
67.9525161435
 10
187.7493462911
 20
67.4904798541
 10
186.9800022365
 20
67.0476969108
 10
186.1774127557
 20
66.6250378959
 10
185.3431558684
 20
66.2233338251
 10
184.4788718579
 20
65.843374513
 10
183.5862600453
 20
65.4859070208
 10
182.6670754491
 20
65.151634187
 10
181.7231253336
 20
64.8412132456
 10
180.7562656567
 20
64.5552545342
 10
179.7683974197
 20
64.2943202935
 10
178.7614629305
 20
64.0589235621
 10
177.7374419839
 20
63.8495271679
 10
176.6983479698
 20
63.6665428179
 10
175.6462239139
 20
63.5103302886
 10
174.5831384612
 20
63.381196719
 10
173.5111818087
 20
63.2793960064
 10
172.4324615952
 20
63.2051283075
 10
171.3490987581
 20
63.1585396444
 10
170.2632233628
 20
63.139721618
 10
169.1769704148
 20
63.1487112274
 10
168.092475662
 20
63.1854907978
 10
167.0118713954
 20
63.2499880144
 10
165.9372822566
 20
63.3420760655
 10
164.8708210605
 20
63.4615738912
 10
163.8145846413
 20
63.6082465395
 10
162.7706497293
 20
63.7818056284
 10
161.7410688686
 20
63.9819099128
 10
160.7278663803
 20
64.2081659557
 10
159.7330343836
 20
64.4601289011
 10
158.7585288779
 20
64.7373033496
 10
157.8062658977
 20
65.0391443315
 10
156.878117745
 20
65.3650583791
 10
155.9759093082
 20
65.7144046929
 10
155.1014144742
 20
66.0864964019
 10
154.2563526402
 20
66.4806019141
 10
153.4423853337
 20
66.8959463546
 10
152.6611129451
 20
67.3317130896
 10
151.9140715816
 20
67.7870453316
 10
151.2027300465
 20
68.2610478243
 10
150.5284869516
 20
68.7527886025
  0
ARC
  5
174
330
1F
100
AcDbEntity
  8
0
  6
Continuous
 62
     7
370
    25
100
AcDbCircle
 10
175.0219746493
 20
75.5077914863
 30
0.0
 40
7.551704241187157
100
AcDbArc
 50
30.3558456913
 51
62.0928124513
  0
LWPOLYLINE
  5
175
330
1F
100
AcDbEntity
  8
0
  6
Continuous
 62
     7
370
    25
100
AcDbPolyline
 90
       34
 70
   128
 43
0.0
 10
158.6040302845
 20
79.3241881636
 10
158.7004085901
 20
79.4965781384
 10
158.9665152202
 20
79.9084495325
 10
159.2773364885
 20
80.3097485082
 10
159.6316208277
 20
80.698859176
 10
160.0279416597
 20
81.0742147247
 10
160.4647031403
 20
81.43430373
 10
160.9401465854
 20
81.7776762405
 10
161.4523575519
 20
82.1029496163
 10
161.999273547
 20
82.4088140963
 10
162.5786923331
 20
82.6940380723
 10
163.1882807952
 20
82.9574730479
 10
163.8255843358
 20
83.1980582635
 10
164.4880367583
 20
83.4148249673
 10
165.1729706007
 20
83.6069003163
 10
165.8776278762
 20
83.7735108909
 10
166.5991711787
 20
83.9139858091
 10
167.3346951078
 20
84.027759428
 10
168.0812379684
 20
84.1143736214
 10
168.8357936958
 20
84.1734796244
 10
169.5953239604
 20
84.2048394381
 10
170.356770402
 20
84.2083267876
 10
171.1170669444
 20
84.1839276306
 10
171.8731521418
 20
84.1317402137
 10
172.6219815061
 20
84.0519746775
 10
173.3605397655
 20
83.9449522094
 10
174.0858530068
 20
83.8111037512
 10
174.7950006494
 20
83.6509682635
 10
175.4851272061
 20
83.4651905553
 10
176.1534537808
 20
83.2545186878
 10
176.7972892583
 20
83.0198009624
 10
177.4140411404
 20
82.7619825044
 10
178.0012259849
 20
82.4821014578
 10
178.5564794057
 20
82.1812848049
  0
ARC
  5
176
330
1F
100
AcDbEntity
  8
0
  6
Continuous
 62
     7
370
    25
100
AcDbCircle
 10
151.0234910939
 20
69.5062186163
 30
0.0
 40
0.9014909242876659
100
AcDbArc
 50
183.6314927142
 51
236.6950529525
  0
LINE
  5
177
330
1F
100
AcDbEntity
  8
0
  6
Continuous
 62
     7
370
    25
100
AcDbLine
 10
153.3314169213
 20
77.5062161837
 30
0.0
 11
154.4282769736
 21
75.0789938361
 31
0.0
  0
ARC
  5
178
330
1F
100
AcDbEntity
  8
0
  6
Continuous
 62
     7
370
    25
100
AcDbCircle
 10
151.4818615984
 20
76.0588555964
 30
0.0
 40
2.348554355781753
100
AcDbArc
 50
38.0447852714
 51
104.5630176361
  0
LINE
  5
179
330
1F
100
AcDbEntity
  8
0
  6
Continuous
 62
     7
370
    25
100
AcDbLine
 10
148.286910146
 20
77.9397279953
 30
0.0
 11
150.8913300898
 21
78.3319548242
 31
0.0
  0
LWPOLYLINE
  5
17A
330
1F
100
AcDbEntity
  8
0
  6
Continuous
 62
     7
370
    25
100
AcDbPolyline
 90
       13
 70
   128
 43
0.0
 10
148.286910146
 20
77.9397279953
 10
147.9650093471
 20
77.9071789053
 10
147.6382237026
 20
77.9053274796
 10
147.3152783192
 20
77.934223151
 10
147.0047957695
 20
77.9930944111
 10
146.715065871
 20
78.0803694101
 10
146.4538243501
 20
78.1937179239
 10
146.2280462992
 20
78.3301135718
 10
146.043759944
 20
78.485914619
 10
145.9058856907
 20
78.656961211
 10
145.8181047523
 20
78.8386864404
 10
145.7827608611
 20
79.0262382826
 10
145.782054862
 20
79.0569133876
  0
ENDSEC
  0
SECTION
  2
OBJECTS
  0
DICTIONARY
  5
C
330
0
100
AcDbDictionary
281
     1
  3
ACAD_GROUP
350
D
  3
ACAD_LAYOUT
350
1A
  3
ACAD_MLINESTYLE
350
17
  3
ACAD_PLOTSETTINGS
350
19
  3
ACAD_PLOTSTYLENAME
350
E
  3
ACAD_SCALELIST
350
47
  3
DWGPROPS
350
17B
  0
DICTIONARY
  5
D
102
{ACAD_REACTORS
330
C
102
}
330
C
100
AcDbDictionary
281
     1
  0
DICTIONARY
  5
1A
102
{ACAD_REACTORS
330
C
102
}
330
C
100
AcDbDictionary
281
     1
  3
Layout1
350
1E
  3
Layout2
350
26
  3
Model
350
22
  0
DICTIONARY
  5
17
102
{ACAD_REACTORS
330
C
102
}
330
C
100
AcDbDictionary
281
     1
  3
Standard
350
18
  0
DICTIONARY
  5
19
102
{ACAD_REACTORS
330
C
102
}
330
C
100
AcDbDictionary
281
     1
  0
ACDBDICTIONARYWDFLT
  5
E
102
{ACAD_REACTORS
330
C
102
}
330
C
100
AcDbDictionary
281
     1
  3
Normal
350
F
100
AcDbDictionaryWithDefault
340
F
  0
DICTIONARY
  5
47
102
{ACAD_REACTORS
330
C
102
}
330
C
100
AcDbDictionary
281
     1
  3
A0
350
48
  3
A1
350
49
  3
A2
350
4A
  3
A3
350
4B
  3
A4
350
4C
  3
A5
350
4D
  3
A6
350
4E
  3
A7
350
4F
  3
A8
350
50
  3
A9
350
51
  3
B0
350
52
  3
B1
350
53
  3
B2
350
54
  3
B3
350
55
  3
B4
350
56
  3
B5
350
57
  3
B6
350
58
  0
XRECORD
  5
17B
102
{ACAD_REACTORS
330
C
102
}
330
C
100
AcDbXrecord
280
     1
  1
DWGPROPS COOKIE
  2

  3

  4

  6

  7

  8
CRJ
  9

300
=
301
=
302
=
303
=
304
=
305
=
306
=
307
=
308
=
309
=
 40
0.0
 41
2460567.109194156
 42
2460567.109197639
  1

 90
        0
  0
LAYOUT
  5
1E
102
{ACAD_REACTORS
330
1A
102
}
330
1A
100
AcDbPlotSettings
  1

  2
none_device
  4

  6

 40
0.0
 41
0.0
 42
0.0
 43
0.0
 44
0.0
 45
0.0
 46
0.0
 47
0.0
 48
0.0
 49
0.0
140
0.0
141
0.0
142
1.0
143
1.0
 70
   688
 72
     1
 73
     0
 74
     5
  7

 75
    16
147
1.0
148
0.0
149
0.0
100
AcDbLayout
  1
Layout1
 70
     1
 71
     1
 10
0.0
 20
0.0
 11
420.0
 21
297.0
 12
0.0
 22
0.0
 32
0.0
 14
1.0000000000E+20
 24
1.0000000000E+20
 34
1.0000000000E+20
 15
-1.0000000000E+20
 25
-1.0000000000E+20
 35
-1.0000000000E+20
146
0.0
 13
0.0
 23
0.0
 33
0.0
 16
1.0
 26
0.0
 36
0.0
 17
0.0
 27
1.0
 37
0.0
 76
     0
330
1B
  0
LAYOUT
  5
26
102
{ACAD_REACTORS
330
1A
102
}
330
1A
100
AcDbPlotSettings
  1

  2
none_device
  4

  6

 40
0.0
 41
0.0
 42
0.0
 43
0.0
 44
0.0
 45
0.0
 46
0.0
 47
0.0
 48
0.0
 49
0.0
140
0.0
141
0.0
142
1.0
143
1.0
 70
   688
 72
     1
 73
     0
 74
     5
  7

 75
    16
147
1.0
148
0.0
149
0.0
100
AcDbLayout
  1
Layout2
 70
     1
 71
     2
 10
0.0
 20
0.0
 11
0.0
 21
0.0
 12
0.0
 22
0.0
 32
0.0
 14
0.0
 24
0.0
 34
0.0
 15
0.0
 25
0.0
 35
0.0
146
0.0
 13
0.0
 23
0.0
 33
0.0
 16
1.0
 26
0.0
 36
0.0
 17
0.0
 27
1.0
 37
0.0
 76
     0
330
23
  0
LAYOUT
  5
22
102
{ACAD_REACTORS
330
1A
102
}
330
1A
100
AcDbPlotSettings
  1

  2
none_device
  4
Letter_(8.50_x_11.00_Inches)
  6

 40
6.35
 41
6.35
 42
6.35000508
 43
6.35000508
 44
215.9
 45
279.4
 46
0.0
 47
0.0
 48
0.0
 49
0.0
140
0.0
141
0.0
142
1.0
143
1.0
 70
  1712
 72
     1
 73
     0
 74
     0
  7

 75
     0
147
1.0
148
0.0
149
0.0
100
AcDbLayout
  1
Model
 70
     1
 71
     0
 10
0.0
 20
0.0
 11
210.0
 21
297.0
 12
0.0
 22
0.0
 32
0.0
 14
0.0
 24
0.0
 34
0.0
 15
210.0
 25
297.0
 35
0.0
146
0.0
 13
0.0
 23
0.0
 33
0.0
 16
1.0
 26
0.0
 36
0.0
 17
0.0
 27
1.0
 37
0.0
 76
     0
330
1F
331
29
  0
MLINESTYLE
  5
18
102
{ACAD_REACTORS
330
17
102
}
330
17
100
AcDbMlineStyle
  2
Standard
 70
     0
  3

 62
   256
 51
90.0
 52
90.0
 71
     2
 49
0.5
 62
   256
  6
BYLAYER
 49
-0.5
 62
   256
  6
BYLAYER
  0
ACDBPLACEHOLDER
  5
F
102
{ACAD_REACTORS
330
E
102
}
330
E
  0
SCALE
  5
48
102
{ACAD_REACTORS
330
47
102
}
330
47
100
AcDbScale
 70
     0
300
1:1
140
1.0
141
1.0
290
     1
  0
SCALE
  5
49
102
{ACAD_REACTORS
330
47
102
}
330
47
100
AcDbScale
 70
     0
300
1:2
140
1.0
141
2.0
290
     0
  0
SCALE
  5
4A
102
{ACAD_REACTORS
330
47
102
}
330
47
100
AcDbScale
 70
     0
300
1:4
140
1.0
141
4.0
290
     0
  0
SCALE
  5
4B
102
{ACAD_REACTORS
330
47
102
}
330
47
100
AcDbScale
 70
     0
300
1:5
140
1.0
141
5.0
290
     0
  0
SCALE
  5
4C
102
{ACAD_REACTORS
330
47
102
}
330
47
100
AcDbScale
 70
     0
300
1:8
140
1.0
141
8.0
290
     0
  0
SCALE
  5
4D
102
{ACAD_REACTORS
330
47
102
}
330
47
100
AcDbScale
 70
     0
300
1:10
140
1.0
141
10.0
290
     0
  0
SCALE
  5
4E
102
{ACAD_REACTORS
330
47
102
}
330
47
100
AcDbScale
 70
     0
300
1:16
140
1.0
141
16.0
290
     0
  0
SCALE
  5
4F
102
{ACAD_REACTORS
330
47
102
}
330
47
100
AcDbScale
 70
     0
300
1:20
140
1.0
141
20.0
290
     0
  0
SCALE
  5
50
102
{ACAD_REACTORS
330
47
102
}
330
47
100
AcDbScale
 70
     0
300
1:30
140
1.0
141
30.0
290
     0
  0
SCALE
  5
51
102
{ACAD_REACTORS
330
47
102
}
330
47
100
AcDbScale
 70
     0
300
1:40
140
1.0
141
40.0
290
     0
  0
SCALE
  5
52
102
{ACAD_REACTORS
330
47
102
}
330
47
100
AcDbScale
 70
     0
300
1:50
140
1.0
141
50.0
290
     0
  0
SCALE
  5
53
102
{ACAD_REACTORS
330
47
102
}
330
47
100
AcDbScale
 70
     0
300
1:100
140
1.0
141
100.0
290
     0
  0
SCALE
  5
54
102
{ACAD_REACTORS
330
47
102
}
330
47
100
AcDbScale
 70
     0
300
2:1
140
2.0
141
1.0
290
     0
  0
SCALE
  5
55
102
{ACAD_REACTORS
330
47
102
}
330
47
100
AcDbScale
 70
     0
300
4:1
140
4.0
141
1.0
290
     0
  0
SCALE
  5
56
102
{ACAD_REACTORS
330
47
102
}
330
47
100
AcDbScale
 70
     0
300
8:1
140
8.0
141
1.0
290
     0
  0
SCALE
  5
57
102
{ACAD_REACTORS
330
47
102
}
330
47
100
AcDbScale
 70
     0
300
10:1
140
10.0
141
1.0
290
     0
  0
SCALE
  5
58
102
{ACAD_REACTORS
330
47
102
}
330
47
100
AcDbScale
 70
     0
300
100:1
140
100.0
141
1.0
290
     0
  0
ENDSEC
  0
EOF
